<svg width="58" height="43" viewBox="0 0 58 43" fill="none" xmlns="http://www.w3.org/2000/svg">
    <path d="M34.9505 30.6005H23.8992L28.6989 26.8656C28.6991 26.8654 28.6993 26.8652 28.6996 26.865C32.1341 24.2155 34.5744 21.7829 35.979 19.5651C37.3885 17.3396 38.0954 14.9127 38.0954 12.2948C38.0954 10.0415 37.4179 8.01574 36.0667 6.23422C34.7211 4.42256 32.8648 3.01698 30.5194 2.00895C28.1713 0.999742 25.5498 0.5 22.6629 0.5C18.8783 0.5 15.4528 1.32625 12.3977 2.988C9.34758 4.60941 7.03375 6.80073 5.47657 9.56448L5.24343 9.97826L5.64469 10.2323L14.2956 15.7103L14.6986 15.9655L14.9724 15.575C15.7868 14.4138 16.6769 13.5429 17.6374 12.9452L17.6374 12.9452L17.6416 12.9425C18.6357 12.3101 19.6458 12.0041 20.6793 12.0041C21.663 12.0041 22.3816 12.2465 22.8914 12.6769L22.8913 12.677L22.9023 12.6857C23.4412 13.1153 23.7058 13.6663 23.7058 14.3843C23.7058 15.2004 23.4212 16.0216 22.8104 16.8562L22.8103 16.8561L22.8026 16.8672C22.2212 17.7086 21.1117 18.8007 19.4314 20.1485C19.4309 20.149 19.4303 20.1495 19.4297 20.1499L3.2887 32.8537L3.14276 32.9685L3.10719 33.1508L1.50926 41.3395L1.393 41.9353H2H32.9118H33.3228L33.4023 41.532L35.441 31.1973L35.5588 30.6005H34.9505ZM43.9138 40.4855L43.9189 40.4908L43.9242 40.4959C45.3155 41.8404 47.099 42.5 49.2307 42.5C51.5201 42.5 53.4818 41.7396 55.0852 40.2165L55.0852 40.2165L55.0899 40.212C56.7036 38.6388 57.5 36.6029 57.5 34.1501C57.5 32.0409 56.8353 30.2879 55.4792 28.9389C54.1226 27.5894 52.354 26.9298 50.2226 26.9298C47.8961 26.9298 45.9145 27.7094 44.3106 29.272C42.6939 30.8089 41.8982 32.8282 41.8982 35.2796C41.8982 37.3543 42.5646 39.1028 43.9138 40.4855Z" stroke="#00BBFF"/>
</svg>
