<svg width="52" height="58" viewBox="0 0 52 58" fill="none" xmlns="http://www.w3.org/2000/svg">
    <path d="M45.3686 57.9379H39.9948C39.686 57.9379 39.3772 57.7527 39.2536 57.4438L37.6476 53.676C35.424 54.1083 28.3207 55.2819 22.8234 53.3054L20.0438 57.6291C19.9203 57.8762 19.6732 57.9997 19.3644 57.9997H14.7936C14.3612 57.9997 13.9906 57.6291 13.9906 57.1967L13.8053 49.7228C12.0758 48.364 3.55187 41.8166 1.7606 40.0253C-0.463037 37.8017 0.216408 32.8602 0.216408 32.6132C0.278176 32.2426 0.587007 31.9337 1.01938 31.9337H4.16956C4.23133 31.9337 4.2313 31.9337 4.29306 31.9337C4.29306 31.9337 6.02258 31.9955 8.24621 28.4747C8.98743 27.2394 9.29626 26.1893 9.04919 25.3246C8.80212 24.2745 7.87562 23.7804 7.87562 23.7804C7.56678 23.5951 7.38146 23.2245 7.50499 22.8539C7.50499 22.7303 8.12269 20.5685 11.1493 20.5685C13.9289 20.5685 17.6349 25.6952 18.3761 26.6835C18.6232 27.0541 18.5614 27.5482 18.1908 27.7953C17.8202 28.0424 17.3261 27.9806 17.079 27.61C15.473 25.3246 12.57 22.1744 11.1493 22.1744C10.0993 22.1744 9.54334 22.545 9.29627 22.7921C9.72865 23.2245 10.3463 23.9039 10.5934 24.8922C10.964 26.2511 10.5934 27.7335 9.60511 29.3395C6.9491 33.4779 4.6637 33.6015 4.16956 33.5397H1.7606C1.63707 35.0839 1.76059 37.7399 2.87241 38.8517C4.78721 40.7665 14.9171 48.611 15.0407 48.6728C15.226 48.7963 15.3495 49.0434 15.3495 49.2905L15.5348 56.332H18.8703L21.7734 51.8229C21.9587 51.5141 22.391 51.3906 22.7616 51.5141C28.7531 53.9848 37.833 51.9465 37.8947 51.9465C38.2653 51.8847 38.6359 52.07 38.8212 52.4406L40.489 56.332H44.5656V48.5493C44.5656 48.3022 44.6274 48.1169 44.8127 47.9934C45.1833 47.6227 53.2749 39.5929 47.654 29.7719C39.9948 16.3065 20.8468 24.6451 20.6615 24.7069C20.2291 24.8922 19.7968 24.7069 19.6115 24.2745C19.4262 23.8422 19.6115 23.4098 20.0438 23.2245C20.2291 23.1627 40.6743 14.2682 49.0747 28.9689C54.7573 38.8517 47.654 47.3757 46.2334 48.9199V57.135C46.1716 57.5673 45.801 57.9379 45.3686 57.9379Z" fill="#00BBFF"/>
    <path d="M32.5205 18.9009C27.332 18.9009 23.1318 14.7007 23.1318 9.45046C23.1318 4.26197 27.332 0 32.5205 0C37.709 0 41.9092 4.2002 41.9092 9.45046C41.9092 14.7007 37.709 18.9009 32.5205 18.9009ZM32.5205 1.66774C28.2586 1.66774 24.7378 5.18849 24.7378 9.51223C24.7378 13.836 28.1968 17.3567 32.5205 17.3567C36.7825 17.3567 40.3033 13.836 40.3033 9.51223C40.3033 5.18849 36.8443 1.66774 32.5205 1.66774Z" fill="black"/>
    <path d="M33.2617 13.5894H31.8411C30.4822 13.5894 29.3704 12.4776 29.3704 11.1187C29.3704 10.6863 29.741 10.3157 30.1733 10.3157C30.6057 10.3157 30.9763 10.6863 30.9763 11.1187C30.9763 11.6128 31.3469 11.9834 31.8411 11.9834H33.2617C33.7559 11.9834 34.1265 11.6128 34.1265 11.1187C34.1265 10.6245 33.7559 10.2539 33.2617 10.2539H31.8411C30.4822 10.2539 29.3704 9.1421 29.3704 7.78321C29.3704 6.42432 30.4822 5.3125 31.8411 5.3125H33.2617C34.6206 5.3125 35.7324 6.42432 35.7324 7.78321C35.7324 8.21558 35.3618 8.58618 34.9295 8.58618C34.4971 8.58618 34.1265 8.21558 34.1265 7.78321C34.1265 7.28907 33.7559 6.91846 33.2617 6.91846H31.8411C31.3469 6.91846 30.9763 7.28907 30.9763 7.78321C30.9763 8.27735 31.3469 8.64795 31.8411 8.64795H33.2617C34.6206 8.64795 35.7324 9.75977 35.7324 11.1187C35.6707 12.5393 34.5588 13.5894 33.2617 13.5894Z" fill="#00BBFF"/>
    <path d="M32.521 6.98022C32.0886 6.98022 31.718 6.60962 31.718 6.17724V4.63305C31.718 4.20068 32.0886 3.83008 32.521 3.83008C32.9534 3.83008 33.324 4.20068 33.324 4.63305V6.17724C33.324 6.60962 32.9534 6.98022 32.521 6.98022Z" fill="#00BBFF"/>
    <path d="M32.521 15.1345C32.0886 15.1345 31.718 14.7639 31.718 14.3316V12.7874C31.718 12.355 32.0886 11.9844 32.521 11.9844C32.9534 11.9844 33.324 12.355 33.324 12.7874V14.3316C33.324 14.8257 32.9534 15.1345 32.521 15.1345Z" fill="#00BBFF"/>
    <path d="M39.8093 28.0421C39.6857 28.0421 39.624 28.0421 39.5004 27.9804C32.7678 25.3243 26.7763 27.9186 26.7146 27.9804C26.2822 28.1657 25.8498 27.9804 25.6645 27.548C25.4792 27.1156 25.6645 26.6832 26.0351 26.4979C26.2822 26.3744 32.706 23.5331 40.0564 26.4979C40.4887 26.6832 40.6741 27.1156 40.4888 27.548C40.427 27.8568 40.1181 28.0421 39.8093 28.0421Z" fill="black"/>
</svg>