<svg width="69" height="68" viewBox="0 0 69 68" fill="none" xmlns="http://www.w3.org/2000/svg">
    <path fill-rule="evenodd" clip-rule="evenodd" d="M36.96 6.74135C36.96 6.33191 36.6281 6 36.2187 6C35.8092 6 35.4773 6.33191 35.4773 6.74135V8.26392C34.7023 8.30342 33.9845 8.4286 33.3238 8.63947C32.5108 8.89894 31.8102 9.27085 31.2221 9.75519C30.6339 10.2222 30.1755 10.7931 29.8469 11.4677C29.5182 12.125 29.3539 12.8602 29.3539 13.6732C29.3539 14.9879 29.7517 16.043 30.5474 16.8388C31.3605 17.6172 32.58 18.1794 34.206 18.5253L35.4773 18.782V25.1108C34.5251 25.0854 33.6602 24.9661 32.8827 24.7526C32.0005 24.4932 31.1702 24.0867 30.3918 23.5331C30.1669 23.3947 29.9593 23.3342 29.769 23.3515C29.5788 23.3688 29.4144 23.4466 29.276 23.585C29.155 23.7234 29.0685 23.8964 29.0166 24.1039C28.982 24.2942 28.9993 24.4932 29.0685 24.7007C29.155 24.891 29.302 25.064 29.5096 25.2197C30.0458 25.6175 30.6426 25.9462 31.2999 26.2057C31.9745 26.4651 32.7011 26.6641 33.4795 26.8025C34.1332 26.9187 34.7992 26.9861 35.4773 27.0047V28.2404C35.4773 28.6498 35.8092 28.9817 36.2187 28.9817C36.6281 28.9817 36.96 28.6498 36.96 28.2404V26.9618C37.5716 26.9057 38.1412 26.8007 38.6689 26.6468C39.4992 26.4046 40.2084 26.0586 40.7966 25.6089C41.3847 25.1418 41.8344 24.5883 42.1458 23.9483C42.4572 23.3082 42.6129 22.6077 42.6129 21.8465C42.6129 20.5838 42.1891 19.5892 41.3414 18.8626C40.5111 18.1188 39.2224 17.5653 37.4753 17.202L36.96 17.093V10.1938C37.4914 10.2502 37.9919 10.3548 38.4613 10.5077C39.2051 10.7325 39.923 11.1044 40.6149 11.6234C40.8571 11.7791 41.0733 11.8483 41.2636 11.831C41.4712 11.8137 41.6355 11.7445 41.7566 11.6234C41.895 11.5023 41.9901 11.3553 42.042 11.1823C42.0939 10.992 42.0853 10.8017 42.0161 10.6114C41.9469 10.4039 41.8171 10.2222 41.6269 10.0666C40.8657 9.46113 40.0095 9.01138 39.0581 8.71731C38.3976 8.49716 37.6983 8.35484 36.96 8.29034V6.74135ZM35.4773 10.16C34.7759 10.2032 34.1532 10.3364 33.6092 10.5596C32.9519 10.8363 32.4329 11.2428 32.0524 11.7791C31.6891 12.298 31.5075 12.9034 31.5075 13.5954C31.5075 14.4257 31.7583 15.083 32.26 15.5673C32.7789 16.0517 33.6179 16.4063 34.7768 16.6312L35.4773 16.7794V10.16ZM36.96 19.0816V25.0622C37.9742 24.955 38.7601 24.6875 39.3176 24.2596C40.0787 23.6715 40.4592 22.9017 40.4592 21.9503C40.4592 21.1719 40.1825 20.5665 39.6289 20.134C39.1005 19.6908 38.2108 19.34 36.96 19.0816Z" fill="#00BBFF"/>
    <circle cx="36" cy="17" r="16" stroke="#00BBFF" stroke-width="2"/>
    <path d="M16.2812 61.871C16.2812 61.871 17.9177 60.8729 21.5178 60.8729C29.0454 60.8729 33.6274 65.5306 39.8458 64.8652C46.0642 64.1999 66.6831 49.2288 66.6831 49.2288C69.956 46.8999 66.6831 41.2442 61.7739 44.2384L45.4096 52.8884M45.4096 52.8884C50.3189 51.2249 49.6643 43.573 44.4278 43.573C44.4278 43.573 36.9002 43.573 33.9546 43.573C31.0091 43.573 26.4271 40.2461 22.8269 40.2461C19.2268 40.2461 16.2812 42.2422 16.2812 42.2422M45.4096 52.8884H31.6636" stroke="black" stroke-width="2" stroke-linecap="round"/>
    <path d="M1 37.8945H11.2807C14.0421 37.8945 16.2807 40.1331 16.2807 42.8945V61.1051C16.2807 63.8665 14.0421 66.1051 11.2807 66.1051H1" stroke="black" stroke-width="2" stroke-linecap="round"/>
    <circle cx="10.9917" cy="43.185" r="1.76316" stroke="black" stroke-width="2" stroke-linecap="round"/>
</svg>