<svg width="125" height="125" viewBox="0 0 100 100" fill="none" xmlns="http://www.w3.org/2000/svg">
    <g filter="url(#filter0_d_0_1)">
        <circle cx="50" cy="43" r="30" fill="white"/>
    </g>
    <path d="M44.8846 53.0295C44.7464 53.2862 44.5786 53.454 44.3811 53.533C44.1837 53.6317 43.9863 53.6515 43.7888 53.5922C43.5914 53.5528 43.4236 53.454 43.2854 53.2961C43.1472 53.1579 43.0583 52.9802 43.0188 52.763C42.9991 52.5458 43.0583 52.3089 43.1965 52.0522L54.6281 32.1507C54.7663 31.894 54.9341 31.7262 55.1315 31.6472C55.329 31.5485 55.5264 31.5288 55.7238 31.588C55.9213 31.6275 56.0891 31.7262 56.2273 31.8842C56.3655 32.0421 56.4445 32.2297 56.4642 32.4469C56.5037 32.664 56.4543 32.8911 56.3161 33.128L44.8846 53.0295ZM42.6931 44.6484C41.1136 44.6484 39.8796 44.0857 38.9911 42.9603C38.1027 41.8349 37.6584 40.2653 37.6584 38.2515C37.6584 36.9089 37.8559 35.7638 38.2508 34.8161C38.6654 33.8684 39.2478 33.1477 39.9981 32.6542C40.7483 32.1408 41.6467 31.8842 42.6931 31.8842C44.2528 31.8842 45.4769 32.4469 46.3654 33.5722C47.2736 34.6779 47.7277 36.2376 47.7277 38.2515C47.7277 39.594 47.5204 40.7392 47.1058 41.6869C46.7109 42.6345 46.1383 43.3651 45.3881 43.8784C44.6378 44.3917 43.7395 44.6484 42.6931 44.6484ZM42.6931 42.9011C43.3051 42.9011 43.8283 42.7234 44.2627 42.368C44.7168 42.0126 45.0623 41.4894 45.2992 40.7984C45.5361 40.1074 45.6546 39.2584 45.6546 38.2515C45.6546 36.7115 45.3881 35.5565 44.855 34.7865C44.3219 34.0165 43.6013 33.6315 42.6931 33.6315C42.081 33.6315 41.5479 33.8092 41.0938 34.1645C40.6595 34.5002 40.3238 35.0135 40.0869 35.7045C39.85 36.3758 39.7315 37.2248 39.7315 38.2515C39.7315 39.7915 39.9882 40.9563 40.5015 41.7461C41.0346 42.5161 41.7651 42.9011 42.6931 42.9011ZM56.8492 53.2665C55.2895 53.2665 54.0555 52.7038 53.1473 51.5784C52.2588 50.453 51.8146 48.8834 51.8146 46.8695C51.8146 45.527 52.012 44.3819 52.4069 43.4342C52.8215 42.4865 53.404 41.7658 54.1542 41.2722C54.9242 40.7589 55.8226 40.5022 56.8492 40.5022C58.4287 40.5022 59.6627 41.0649 60.5511 42.1903C61.4396 43.296 61.8838 44.8557 61.8838 46.8695C61.8838 48.2121 61.6864 49.3671 61.2915 50.3345C60.8967 51.2822 60.3241 52.0127 59.5738 52.5261C58.8236 53.0197 57.9154 53.2665 56.8492 53.2665ZM56.8492 51.5192C57.481 51.5192 58.0141 51.3513 58.4484 51.0157C58.8828 50.6603 59.2184 50.1371 59.4554 49.4461C59.6923 48.7551 59.8108 47.8962 59.8108 46.8695C59.8108 45.3295 59.5442 44.1745 59.0111 43.4045C58.4978 42.6345 57.7772 42.2495 56.8492 42.2495C56.2372 42.2495 55.7041 42.4272 55.25 42.7826C54.8156 43.1183 54.48 43.6316 54.2431 44.3226C54.0259 44.9939 53.9173 45.8429 53.9173 46.8695C53.9173 48.4293 54.174 49.5942 54.6873 50.3642C55.2204 51.1342 55.941 51.5192 56.8492 51.5192Z" fill="#00BBFF"/>
    <defs>
        <filter id="filter0_d_0_1" x="0" y="0" width="100" height="100" filterUnits="userSpaceOnUse" color-interpolation-filters="sRGB">
            <feFlood flood-opacity="0" result="BackgroundImageFix"/>
            <feColorMatrix in="SourceAlpha" type="matrix" values="0 0 0 0 0 0 0 0 0 0 0 0 0 0 0 0 0 0 127 0" result="hardAlpha"/>
            <feOffset dy="7"/>
            <feGaussianBlur stdDeviation="10"/>
            <feColorMatrix type="matrix" values="0 0 0 0 0 0 0 0 0 0 0 0 0 0 0 0 0 0 0.15 0"/>
            <feBlend mode="normal" in2="BackgroundImageFix" result="effect1_dropShadow_0_1"/>
            <feBlend mode="normal" in="SourceGraphic" in2="effect1_dropShadow_0_1" result="shape"/>
        </filter>
    </defs>
</svg>
