<svg width="72" height="86" viewBox="0 0 72 86" fill="none" xmlns="http://www.w3.org/2000/svg">
    <mask id="path-1-inside-1_0_1" fill="white">
        <path fill-rule="evenodd" clip-rule="evenodd" d="M21.1765 46.5892C21.1765 51.4623 17.226 55.4127 12.3529 55.4127C7.47984 55.4127 3.52941 51.4623 3.52941 46.5892C3.52941 41.7161 7.47984 37.7656 12.3529 37.7656C17.226 37.7656 21.1765 41.7161 21.1765 46.5892ZM35.8828 57.7656C41.4057 57.7656 45.8828 53.2885 45.8828 47.7656C45.8828 42.2428 41.4057 37.7656 35.8828 37.7656C30.36 37.7656 25.8828 42.2428 25.8828 47.7656C25.8828 53.2885 30.36 57.7656 35.8828 57.7656ZM22.3535 80.1186H0V67.7656C0 62.2428 4.47715 57.7656 10 57.7656H15.8823C19.8584 57.7656 23.2925 60.0861 24.9042 63.4467C26.7351 61.4036 29.3942 60.1182 32.3535 60.1182H40.5888C43.1577 60.1182 45.5004 61.0868 47.2714 62.6788C49.0125 59.7377 52.2174 57.7656 55.8828 57.7656H61.7652C67.288 57.7656 71.7652 62.2428 71.7652 67.7656V80.1186H50.5888V86.0005H22.3535V80.1186ZM67.0592 46.5892C67.0592 51.4623 63.1087 55.4127 58.2356 55.4127C53.3625 55.4127 49.4121 51.4623 49.4121 46.5892C49.4121 41.7161 53.3625 37.7656 58.2356 37.7656C63.1087 37.7656 67.0592 41.7161 67.0592 46.5892Z"/>
    </mask>
    <path d="M0 80.1186H-2C-2 81.2231 -1.10457 82.1186 0 82.1186L0 80.1186ZM22.3535 80.1186H24.3535C24.3535 79.014 23.4581 78.1186 22.3535 78.1186V80.1186ZM24.9042 63.4467L23.1008 64.3115C23.3897 64.9139 23.9602 65.3322 24.6216 65.4266C25.2829 65.521 25.9477 65.279 26.3936 64.7815L24.9042 63.4467ZM47.2714 62.6788L45.9344 64.1662C46.3801 64.5668 46.982 64.7465 47.5744 64.6557C48.1667 64.565 48.6872 64.2133 48.9925 63.6976L47.2714 62.6788ZM71.7652 80.1186V82.1186C72.8697 82.1186 73.7652 81.2231 73.7652 80.1186H71.7652ZM50.5888 80.1186V78.1186C49.4842 78.1186 48.5888 79.014 48.5888 80.1186H50.5888ZM50.5888 86.0005V88.0005C51.6934 88.0005 52.5888 87.1051 52.5888 86.0005H50.5888ZM22.3535 86.0005H20.3535C20.3535 87.1051 21.2489 88.0005 22.3535 88.0005V86.0005ZM12.3529 57.4127C18.3306 57.4127 23.1765 52.5668 23.1765 46.5892H19.1765C19.1765 50.3577 16.1215 53.4127 12.3529 53.4127V57.4127ZM1.52941 46.5892C1.52941 52.5668 6.37527 57.4127 12.3529 57.4127V53.4127C8.58441 53.4127 5.52941 50.3577 5.52941 46.5892H1.52941ZM12.3529 35.7656C6.37527 35.7656 1.52941 40.6115 1.52941 46.5892H5.52941C5.52941 42.8206 8.58441 39.7656 12.3529 39.7656V35.7656ZM23.1765 46.5892C23.1765 40.6115 18.3306 35.7656 12.3529 35.7656V39.7656C16.1215 39.7656 19.1765 42.8206 19.1765 46.5892H23.1765ZM43.8828 47.7656C43.8828 52.1839 40.3011 55.7656 35.8828 55.7656V59.7656C42.5102 59.7656 47.8828 54.393 47.8828 47.7656H43.8828ZM35.8828 39.7656C40.3011 39.7656 43.8828 43.3473 43.8828 47.7656H47.8828C47.8828 41.1382 42.5102 35.7656 35.8828 35.7656V39.7656ZM27.8828 47.7656C27.8828 43.3473 31.4645 39.7656 35.8828 39.7656V35.7656C29.2554 35.7656 23.8828 41.1382 23.8828 47.7656H27.8828ZM35.8828 55.7656C31.4645 55.7656 27.8828 52.1839 27.8828 47.7656H23.8828C23.8828 54.393 29.2554 59.7656 35.8828 59.7656V55.7656ZM0 82.1186H22.3535V78.1186H0V82.1186ZM-2 67.7656V80.1186H2V67.7656H-2ZM10 55.7656C3.37259 55.7656 -2 61.1382 -2 67.7656H2C2 63.3473 5.58172 59.7656 10 59.7656V55.7656ZM15.8823 55.7656H10V59.7656H15.8823V55.7656ZM26.7075 62.5818C24.7757 58.5538 20.6566 55.7656 15.8823 55.7656V59.7656C19.0602 59.7656 21.8092 61.6184 23.1008 64.3115L26.7075 62.5818ZM32.3535 58.1182C28.8021 58.1182 25.609 59.6634 23.4147 62.1119L26.3936 64.7815C27.8612 63.1439 29.9862 62.1182 32.3535 62.1182V58.1182ZM40.5888 58.1182H32.3535V62.1182H40.5888V58.1182ZM48.6084 61.1914C46.4845 59.2822 43.6702 58.1182 40.5888 58.1182V62.1182C42.6452 62.1182 44.5162 62.8914 45.9344 64.1662L48.6084 61.1914ZM48.9925 63.6976C50.3884 61.3396 52.9529 59.7656 55.8828 59.7656V55.7656C51.4818 55.7656 47.6366 58.1359 45.5504 61.66L48.9925 63.6976ZM55.8828 59.7656H61.7652V55.7656H55.8828V59.7656ZM61.7652 59.7656C66.1834 59.7656 69.7652 63.3474 69.7652 67.7656H73.7652C73.7652 61.1382 68.3926 55.7656 61.7652 55.7656V59.7656ZM69.7652 67.7656V80.1186H73.7652V67.7656H69.7652ZM71.7652 78.1186H50.5888V82.1186H71.7652V78.1186ZM52.5888 86.0005V80.1186H48.5888V86.0005H52.5888ZM22.3535 88.0005H50.5888V84.0005H22.3535V88.0005ZM20.3535 80.1186V86.0005H24.3535V80.1186H20.3535ZM58.2356 57.4127C64.2133 57.4127 69.0592 52.5668 69.0592 46.5892H65.0592C65.0592 50.3577 62.0042 53.4127 58.2356 53.4127V57.4127ZM47.4121 46.5892C47.4121 52.5668 52.258 57.4127 58.2356 57.4127V53.4127C54.4671 53.4127 51.4121 50.3577 51.4121 46.5892H47.4121ZM58.2356 35.7656C52.258 35.7656 47.4121 40.6115 47.4121 46.5892H51.4121C51.4121 42.8206 54.4671 39.7656 58.2356 39.7656V35.7656ZM69.0592 46.5892C69.0592 40.6115 64.2133 35.7656 58.2356 35.7656V39.7656C62.0042 39.7656 65.0592 42.8206 65.0592 46.5892H69.0592Z" fill="black" mask="url(#path-1-inside-1_0_1)"/>
    <path fill-rule="evenodd" clip-rule="evenodd" d="M36.96 6.74135C36.96 6.33191 36.6281 6 36.2187 6C35.8092 6 35.4773 6.33191 35.4773 6.74135V8.26392C34.7023 8.30342 33.9845 8.4286 33.3238 8.63947C32.5108 8.89894 31.8102 9.27085 31.2221 9.75519C30.6339 10.2222 30.1755 10.7931 29.8469 11.4677C29.5182 12.125 29.3539 12.8602 29.3539 13.6732C29.3539 14.9879 29.7517 16.043 30.5474 16.8388C31.3605 17.6172 32.58 18.1794 34.206 18.5253L35.4773 18.782V25.1108C34.5251 25.0854 33.6602 24.9661 32.8827 24.7526C32.0005 24.4932 31.1702 24.0867 30.3918 23.5331C30.1669 23.3947 29.9593 23.3342 29.769 23.3515C29.5788 23.3688 29.4144 23.4466 29.276 23.585C29.155 23.7234 29.0685 23.8964 29.0166 24.1039C28.982 24.2942 28.9993 24.4932 29.0685 24.7007C29.155 24.891 29.302 25.064 29.5096 25.2197C30.0458 25.6175 30.6426 25.9462 31.2999 26.2057C31.9745 26.4651 32.7011 26.6641 33.4795 26.8025C34.1332 26.9187 34.7992 26.9861 35.4773 27.0047V28.2404C35.4773 28.6498 35.8092 28.9817 36.2187 28.9817C36.6281 28.9817 36.96 28.6498 36.96 28.2404V26.9618C37.5716 26.9057 38.1412 26.8007 38.6689 26.6468C39.4992 26.4046 40.2084 26.0586 40.7966 25.6089C41.3847 25.1418 41.8344 24.5883 42.1458 23.9483C42.4572 23.3082 42.6129 22.6077 42.6129 21.8465C42.6129 20.5838 42.1891 19.5892 41.3414 18.8626C40.5111 18.1188 39.2224 17.5653 37.4753 17.202L36.96 17.093V10.1938C37.4914 10.2502 37.9919 10.3548 38.4613 10.5077C39.2051 10.7325 39.923 11.1044 40.6149 11.6234C40.8571 11.7791 41.0733 11.8483 41.2636 11.831C41.4712 11.8137 41.6355 11.7445 41.7566 11.6234C41.895 11.5023 41.9901 11.3553 42.042 11.1823C42.0939 10.992 42.0853 10.8017 42.0161 10.6114C41.9469 10.4039 41.8171 10.2222 41.6269 10.0666C40.8657 9.46113 40.0095 9.01138 39.0581 8.71731C38.3976 8.49716 37.6983 8.35484 36.96 8.29034V6.74135ZM35.4773 10.16C34.7759 10.2032 34.1532 10.3364 33.6092 10.5596C32.9519 10.8363 32.4329 11.2428 32.0524 11.7791C31.6891 12.298 31.5075 12.9034 31.5075 13.5954C31.5075 14.4257 31.7583 15.083 32.26 15.5673C32.7789 16.0517 33.6179 16.4063 34.7768 16.6312L35.4773 16.7794V10.16ZM36.96 19.0816V25.0622C37.9742 24.955 38.7601 24.6875 39.3176 24.2596C40.0787 23.6715 40.4592 22.9017 40.4592 21.9503C40.4592 21.1719 40.1825 20.5665 39.6289 20.134C39.1005 19.6908 38.2108 19.34 36.96 19.0816Z" fill="#00BBFF"/>
    <circle cx="36" cy="17" r="16" stroke="#00BBFF" stroke-width="2"/>
</svg>