<svg width="61" height="59" viewBox="0 0 61 59" fill="none" xmlns="http://www.w3.org/2000/svg">
    <path d="M14.457 54.1131C14.457 54.1131 15.8981 53.2342 19.0683 53.2342C25.6971 53.2342 29.7319 57.3358 35.2079 56.7498C40.6838 56.1639 58.8407 42.9804 58.8407 42.9804C61.7228 40.9296 58.8407 35.9492 54.5177 38.5859L40.1074 46.203M40.1074 46.203C44.4304 44.7382 43.854 38 39.2427 38C39.2427 38 32.614 38 30.0201 38C27.4263 38 23.3914 35.0703 20.2212 35.0703C17.0509 35.0703 14.457 36.8281 14.457 36.8281M40.1074 46.203H28.0027" stroke="#00BBFF" stroke-width="2" stroke-linecap="round"/>
    <path d="M1 33H8.48968C11.7849 33 14.4561 35.6713 14.4561 38.9665V51.8756C14.4561 55.1708 11.7849 57.8421 8.48968 57.8421H1" stroke="#00BBFF" stroke-width="2" stroke-linecap="round"/>
    <circle cx="9.15714" cy="38.956" r="2.39932" stroke="#00BBFF" stroke-width="2" stroke-linecap="round"/>
    <path d="M36.1802 31C35.024 31 33.952 30.8394 32.964 30.5183C31.997 30.2201 31.1877 29.7728 30.536 29.1765C30.3679 29.0618 30.2628 28.9127 30.2207 28.7292C30.1787 28.5686 30.1787 28.3966 30.2207 28.2131C30.2838 28.0296 30.3679 27.869 30.473 27.7314C30.5991 27.6167 30.7462 27.5479 30.9144 27.525C31.0826 27.525 31.2613 27.5938 31.4505 27.7314C32.0811 28.236 32.8168 28.6145 33.6577 28.8668C34.4985 29.1421 35.3604 29.2797 36.2432 29.2797C37.1261 29.2797 37.9144 29.1191 38.6081 28.798C39.3018 28.4769 39.8378 27.9952 40.2162 27.3529C40.5946 26.7107 40.7838 25.9423 40.7838 25.0477C40.7838 24.0844 40.5631 23.2586 40.1216 22.5705C39.6802 21.8824 38.8814 21.2401 37.7252 20.6437L34.509 18.9922C33.3529 18.3729 32.4384 17.7765 31.7658 17.2031C31.1141 16.6067 30.6517 15.9645 30.3784 15.2764C30.1261 14.5882 30 13.8313 30 13.0056C30 12.111 30.1997 11.2394 30.5991 10.3907C31.0195 9.51905 31.5345 8.83093 32.1441 8.32631L31.955 8.94562C31.7868 8.67037 31.6291 8.31484 31.482 7.87902C31.3348 7.42027 31.2613 6.8239 31.2613 6.0899C31.2613 4.8054 31.545 3.71587 32.1126 2.82131C32.6802 1.92675 33.4474 1.23862 34.4144 0.756937C35.3814 0.252312 36.464 0 37.6622 0C38.7342 0 39.7327 0.160562 40.6577 0.481687C41.6036 0.779874 42.4234 1.22716 43.1171 1.82353C43.2853 1.96116 43.3904 2.13319 43.4324 2.33962C43.4955 2.52312 43.4955 2.70662 43.4324 2.89012C43.3904 3.05069 43.3063 3.19978 43.1802 3.3374C43.0541 3.45209 42.9069 3.50944 42.7387 3.50944C42.5706 3.50944 42.3919 3.44062 42.2027 3.303C41.6141 2.79837 40.8994 2.4199 40.0586 2.16759C39.2387 1.89234 38.4084 1.75472 37.5676 1.75472C36.7477 1.75472 36.0015 1.91528 35.3288 2.23641C34.6772 2.55753 34.1622 3.03922 33.7838 3.68147C33.4054 4.30078 33.2162 5.06918 33.2162 5.98668C33.2162 6.92712 33.4369 7.7414 33.8784 8.42952C34.3198 9.11765 35.1186 9.7599 36.2748 10.3563L39.491 12.0422C40.6682 12.6386 41.5721 13.2349 42.2027 13.8313C42.8544 14.4277 43.3168 15.0699 43.5901 15.758C43.8634 16.4232 44 17.1802 44 18.0289C44 18.9234 43.7898 19.8065 43.3694 20.6781C42.97 21.5268 42.455 22.2035 41.8243 22.7081L42.0135 22.0888C42.1817 22.3411 42.3393 22.6966 42.4865 23.1554C42.6547 23.6141 42.7387 24.2105 42.7387 24.9445C42.7387 26.2061 42.4444 27.2841 41.8559 28.1787C41.2883 29.0962 40.5105 29.7958 39.5225 30.2775C38.5345 30.7592 37.4204 31 36.1802 31ZM31.7973 12.7647C31.7973 13.6363 32.0495 14.4277 32.5541 15.1387C33.0586 15.8269 33.994 16.5265 35.3604 17.2375L38.1351 18.6826C39.018 19.1184 39.7327 19.5771 40.2793 20.0588C40.8258 20.5405 41.2462 21.0107 41.5405 21.4695H40.8468C41.2883 21.0795 41.6246 20.6093 41.8559 20.0588C42.0871 19.4854 42.2027 18.8775 42.2027 18.2353C42.2027 17.3407 41.9504 16.5609 41.4459 15.8957C40.9625 15.2075 40.027 14.508 38.6396 13.7969L35.8649 12.3518C35.003 11.8931 34.2883 11.4343 33.7207 10.9756C33.1742 10.4939 32.7538 10.0237 32.4595 9.56493L33.1216 9.53052C32.7012 9.9434 32.3754 10.4251 32.1441 10.9756C31.9129 11.5261 31.7973 12.1225 31.7973 12.7647Z" fill="black"/>
</svg>
