<svg width="560" height="560" viewBox="0 0 560 560" fill="none" xmlns="http://www.w3.org/2000/svg">
    <circle cx="280" cy="280" r="277.5" transform="rotate(-27.7381 280 280)" stroke="#D9D9D9" stroke-width="3" stroke-dasharray="6 12 18 24"/>
    <circle cx="280" cy="280" r="228.5" transform="rotate(34.4676 280 280)" stroke="#D9D9D9" stroke-width="3" stroke-dasharray="6 12 18 24"/>
    <circle cx="280" cy="280" r="181.5" stroke="#D9D9D9" stroke-width="3" stroke-dasharray="6 12 18 24"/>
    <path d="M344 193.525C371.852 213.482 390 246.122 390 283C390 306.251 382.787 327.816 370.476 345.581M218 192.125C189.02 211.935 170 245.247 170 283C170 306.251 177.213 327.816 189.524 345.581M339.5 375.535C322.347 386.587 301.922 393 280 393C258.078 393 237.653 386.587 220.5 375.535" stroke="#00BBFF" stroke-width="2" stroke-miterlimit="10" stroke-linecap="round" stroke-linejoin="round"/>
    <path d="M281 394C281 393.448 280.552 393 280 393C279.448 393 279 393.448 279 394H281ZM279.293 470.707C279.683 471.098 280.317 471.098 280.707 470.707L287.071 464.343C287.462 463.953 287.462 463.319 287.071 462.929C286.681 462.538 286.047 462.538 285.657 462.929L280 468.586L274.343 462.929C273.953 462.538 273.319 462.538 272.929 462.929C272.538 463.319 272.538 463.953 272.929 464.343L279.293 470.707ZM279 394V470H281V394H279Z" fill="#00BBFF"/>
    <path d="M375.464 227.155C374.998 227.451 374.86 228.069 375.155 228.536C375.451 229.002 376.069 229.14 376.536 228.845L375.464 227.155ZM458.976 176.218C459.097 175.68 458.757 175.145 458.218 175.024L449.436 173.058C448.897 172.937 448.362 173.276 448.242 173.815C448.121 174.354 448.46 174.889 448.999 175.01L456.806 176.757L455.058 184.564C454.937 185.103 455.276 185.638 455.815 185.758C456.354 185.879 456.889 185.54 457.01 185.001L458.976 176.218ZM376.536 228.845L458.536 176.845L457.464 175.155L375.464 227.155L376.536 228.845Z" fill="#00BBFF"/>
    <path d="M101.778 175.025C101.239 175.148 100.902 175.684 101.025 176.222L103.027 184.997C103.15 185.535 103.686 185.872 104.224 185.749C104.763 185.627 105.1 185.091 104.977 184.552L103.197 176.753L110.997 174.973C111.535 174.85 111.872 174.314 111.749 173.776C111.627 173.237 111.091 172.9 110.552 173.023L101.778 175.025ZM184.209 228.847C184.676 229.141 185.294 229 185.588 228.532C185.882 228.064 185.741 227.447 185.273 227.153L184.209 228.847ZM101.468 176.847L184.209 228.847L185.273 227.153L102.532 175.153L101.468 176.847Z" fill="#00BBFF"/>
    <path d="M256.037 341.72V343H246.137V329H255.737V330.28H247.617V335.26H254.857V336.52H247.617V341.72H256.037ZM268.54 332.48V343H267.18V341.08C266.807 341.72 266.293 342.22 265.64 342.58C264.987 342.927 264.24 343.1 263.4 343.1C262.027 343.1 260.94 342.72 260.14 341.96C259.353 341.187 258.96 340.06 258.96 338.58V332.48H260.38V338.44C260.38 339.547 260.653 340.387 261.2 340.96C261.747 341.533 262.527 341.82 263.54 341.82C264.647 341.82 265.52 341.487 266.16 340.82C266.8 340.14 267.12 339.2 267.12 338V332.48H268.54ZM273.877 334.54C274.21 333.833 274.704 333.3 275.357 332.94C276.024 332.58 276.844 332.4 277.817 332.4V333.78L277.477 333.76C276.37 333.76 275.504 334.1 274.877 334.78C274.25 335.46 273.937 336.413 273.937 337.64V343H272.517V332.48H273.877V334.54ZM284.591 343.1C283.577 343.1 282.664 342.873 281.851 342.42C281.037 341.953 280.397 341.313 279.931 340.5C279.464 339.687 279.231 338.767 279.231 337.74C279.231 336.713 279.464 335.793 279.931 334.98C280.397 334.167 281.037 333.533 281.851 333.08C282.664 332.627 283.577 332.4 284.591 332.4C285.604 332.4 286.517 332.627 287.331 333.08C288.144 333.533 288.777 334.167 289.231 334.98C289.697 335.793 289.931 336.713 289.931 337.74C289.931 338.767 289.697 339.687 289.231 340.5C288.777 341.313 288.144 341.953 287.331 342.42C286.517 342.873 285.604 343.1 284.591 343.1ZM284.591 341.84C285.337 341.84 286.004 341.673 286.591 341.34C287.191 340.993 287.657 340.507 287.991 339.88C288.324 339.253 288.491 338.54 288.491 337.74C288.491 336.94 288.324 336.227 287.991 335.6C287.657 334.973 287.191 334.493 286.591 334.16C286.004 333.813 285.337 333.64 284.591 333.64C283.844 333.64 283.171 333.813 282.571 334.16C281.984 334.493 281.517 334.973 281.171 335.6C280.837 336.227 280.671 336.94 280.671 337.74C280.671 338.54 280.837 339.253 281.171 339.88C281.517 340.507 281.984 340.993 282.571 341.34C283.171 341.673 283.844 341.84 284.591 341.84ZM298.25 332.4C299.236 332.4 300.13 332.627 300.93 333.08C301.73 333.52 302.356 334.147 302.81 334.96C303.263 335.773 303.49 336.7 303.49 337.74C303.49 338.793 303.263 339.727 302.81 340.54C302.356 341.353 301.73 341.987 300.93 342.44C300.143 342.88 299.25 343.1 298.25 343.1C297.396 343.1 296.623 342.927 295.93 342.58C295.25 342.22 294.69 341.7 294.25 341.02V346.88H292.83V332.48H294.19V334.56C294.616 333.867 295.176 333.333 295.87 332.96C296.576 332.587 297.37 332.4 298.25 332.4ZM298.15 341.84C298.883 341.84 299.55 341.673 300.15 341.34C300.75 340.993 301.216 340.507 301.55 339.88C301.896 339.253 302.07 338.54 302.07 337.74C302.07 336.94 301.896 336.233 301.55 335.62C301.216 334.993 300.75 334.507 300.15 334.16C299.55 333.813 298.883 333.64 298.15 333.64C297.403 333.64 296.73 333.813 296.13 334.16C295.543 334.507 295.076 334.993 294.73 335.62C294.396 336.233 294.23 336.94 294.23 337.74C294.23 338.54 294.396 339.253 294.73 339.88C295.076 340.507 295.543 340.993 296.13 341.34C296.73 341.673 297.403 341.84 298.15 341.84ZM310.006 332.4C311.379 332.4 312.432 332.747 313.166 333.44C313.899 334.12 314.266 335.133 314.266 336.48V343H312.906V341.36C312.586 341.907 312.112 342.333 311.486 342.64C310.872 342.947 310.139 343.1 309.286 343.1C308.112 343.1 307.179 342.82 306.486 342.26C305.792 341.7 305.446 340.96 305.446 340.04C305.446 339.147 305.766 338.427 306.406 337.88C307.059 337.333 308.092 337.06 309.506 337.06H312.846V336.42C312.846 335.513 312.592 334.827 312.086 334.36C311.579 333.88 310.839 333.64 309.866 333.64C309.199 333.64 308.559 333.753 307.946 333.98C307.332 334.193 306.806 334.493 306.366 334.88L305.726 333.82C306.259 333.367 306.899 333.02 307.646 332.78C308.392 332.527 309.179 332.4 310.006 332.4ZM309.506 341.98C310.306 341.98 310.992 341.8 311.566 341.44C312.139 341.067 312.566 340.533 312.846 339.84V338.12H309.546C307.746 338.12 306.846 338.747 306.846 340C306.846 340.613 307.079 341.1 307.546 341.46C308.012 341.807 308.666 341.98 309.506 341.98ZM176.355 368.12C175.315 368.12 174.315 367.953 173.355 367.62C172.408 367.287 171.675 366.847 171.155 366.3L171.735 365.16C172.242 365.667 172.915 366.08 173.755 366.4C174.595 366.707 175.462 366.86 176.355 366.86C177.608 366.86 178.548 366.633 179.175 366.18C179.802 365.713 180.115 365.113 180.115 364.38C180.115 363.82 179.942 363.373 179.595 363.04C179.262 362.707 178.848 362.453 178.355 362.28C177.862 362.093 177.175 361.893 176.295 361.68C175.242 361.413 174.402 361.16 173.775 360.92C173.148 360.667 172.608 360.287 172.155 359.78C171.715 359.273 171.495 358.587 171.495 357.72C171.495 357.013 171.682 356.373 172.055 355.8C172.428 355.213 173.002 354.747 173.775 354.4C174.548 354.053 175.508 353.88 176.655 353.88C177.455 353.88 178.235 353.993 178.995 354.22C179.768 354.433 180.435 354.733 180.995 355.12L180.495 356.3C179.908 355.913 179.282 355.627 178.615 355.44C177.948 355.24 177.295 355.14 176.655 355.14C175.428 355.14 174.502 355.38 173.875 355.86C173.262 356.327 172.955 356.933 172.955 357.68C172.955 358.24 173.122 358.693 173.455 359.04C173.802 359.373 174.228 359.633 174.735 359.82C175.255 359.993 175.948 360.187 176.815 360.4C177.842 360.653 178.668 360.907 179.295 361.16C179.935 361.4 180.475 361.773 180.915 362.28C181.355 362.773 181.575 363.447 181.575 364.3C181.575 365.007 181.382 365.653 180.995 366.24C180.622 366.813 180.042 367.273 179.255 367.62C178.468 367.953 177.502 368.12 176.355 368.12ZM178.075 350.38H179.975L176.735 352.86H175.335L178.075 350.38ZM185.86 359.54C186.193 358.833 186.686 358.3 187.34 357.94C188.006 357.58 188.826 357.4 189.8 357.4V358.78L189.46 358.76C188.353 358.76 187.486 359.1 186.86 359.78C186.233 360.46 185.92 361.413 185.92 362.64V368H184.5V357.48H185.86V359.54ZM196.573 368.1C195.56 368.1 194.646 367.873 193.833 367.42C193.02 366.953 192.38 366.313 191.913 365.5C191.446 364.687 191.213 363.767 191.213 362.74C191.213 361.713 191.446 360.793 191.913 359.98C192.38 359.167 193.02 358.533 193.833 358.08C194.646 357.627 195.56 357.4 196.573 357.4C197.586 357.4 198.5 357.627 199.313 358.08C200.126 358.533 200.76 359.167 201.213 359.98C201.68 360.793 201.913 361.713 201.913 362.74C201.913 363.767 201.68 364.687 201.213 365.5C200.76 366.313 200.126 366.953 199.313 367.42C198.5 367.873 197.586 368.1 196.573 368.1ZM196.573 366.84C197.32 366.84 197.986 366.673 198.573 366.34C199.173 365.993 199.64 365.507 199.973 364.88C200.306 364.253 200.473 363.54 200.473 362.74C200.473 361.94 200.306 361.227 199.973 360.6C199.64 359.973 199.173 359.493 198.573 359.16C197.986 358.813 197.32 358.64 196.573 358.64C195.826 358.64 195.153 358.813 194.553 359.16C193.966 359.493 193.5 359.973 193.153 360.6C192.82 361.227 192.653 361.94 192.653 362.74C192.653 363.54 192.82 364.253 193.153 364.88C193.5 365.507 193.966 365.993 194.553 366.34C195.153 366.673 195.826 366.84 196.573 366.84ZM214.412 353.16V368H213.052V365.92C212.625 366.627 212.059 367.167 211.352 367.54C210.659 367.913 209.872 368.1 208.992 368.1C208.005 368.1 207.112 367.873 206.312 367.42C205.512 366.967 204.885 366.333 204.432 365.52C203.979 364.707 203.752 363.78 203.752 362.74C203.752 361.7 203.979 360.773 204.432 359.96C204.885 359.147 205.512 358.52 206.312 358.08C207.112 357.627 208.005 357.4 208.992 357.4C209.845 357.4 210.612 357.58 211.292 357.94C211.985 358.287 212.552 358.8 212.992 359.48V353.16H214.412ZM209.112 366.84C209.845 366.84 210.505 366.673 211.092 366.34C211.692 365.993 212.159 365.507 212.492 364.88C212.839 364.253 213.012 363.54 213.012 362.74C213.012 361.94 212.839 361.227 212.492 360.6C212.159 359.973 211.692 359.493 211.092 359.16C210.505 358.813 209.845 358.64 209.112 358.64C208.365 358.64 207.692 358.813 207.092 359.16C206.505 359.493 206.039 359.973 205.692 360.6C205.359 361.227 205.192 361.94 205.192 362.74C205.192 363.54 205.359 364.253 205.692 364.88C206.039 365.507 206.505 365.993 207.092 366.34C207.692 366.673 208.365 366.84 209.112 366.84ZM222.267 362.72L219.787 365V368H218.367V353.16H219.787V363.22L226.067 357.48H227.827L223.327 361.78L228.247 368H226.507L222.267 362.72ZM234.249 368.1C233.235 368.1 232.322 367.873 231.509 367.42C230.695 366.953 230.055 366.313 229.589 365.5C229.122 364.687 228.889 363.767 228.889 362.74C228.889 361.713 229.122 360.793 229.589 359.98C230.055 359.167 230.695 358.533 231.509 358.08C232.322 357.627 233.235 357.4 234.249 357.4C235.262 357.4 236.175 357.627 236.989 358.08C237.802 358.533 238.435 359.167 238.889 359.98C239.355 360.793 239.589 361.713 239.589 362.74C239.589 363.767 239.355 364.687 238.889 365.5C238.435 366.313 237.802 366.953 236.989 367.42C236.175 367.873 235.262 368.1 234.249 368.1ZM234.249 366.84C234.995 366.84 235.662 366.673 236.249 366.34C236.849 365.993 237.315 365.507 237.649 364.88C237.982 364.253 238.149 363.54 238.149 362.74C238.149 361.94 237.982 361.227 237.649 360.6C237.315 359.973 236.849 359.493 236.249 359.16C235.662 358.813 234.995 358.64 234.249 358.64C233.502 358.64 232.829 358.813 232.229 359.16C231.642 359.493 231.175 359.973 230.829 360.6C230.495 361.227 230.329 361.94 230.329 362.74C230.329 363.54 230.495 364.253 230.829 364.88C231.175 365.507 231.642 365.993 232.229 366.34C232.829 366.673 233.502 366.84 234.249 366.84ZM257.635 357.48L253.655 368H252.315L248.995 359.38L245.675 368H244.335L240.375 357.48H241.735L245.035 366.42L248.415 357.48H249.635L252.995 366.42L256.335 357.48H257.635ZM263.78 368.1C262.767 368.1 261.853 367.873 261.04 367.42C260.227 366.953 259.587 366.313 259.12 365.5C258.653 364.687 258.42 363.767 258.42 362.74C258.42 361.713 258.653 360.793 259.12 359.98C259.587 359.167 260.227 358.533 261.04 358.08C261.853 357.627 262.767 357.4 263.78 357.4C264.793 357.4 265.707 357.627 266.52 358.08C267.333 358.533 267.967 359.167 268.42 359.98C268.887 360.793 269.12 361.713 269.12 362.74C269.12 363.767 268.887 364.687 268.42 365.5C267.967 366.313 267.333 366.953 266.52 367.42C265.707 367.873 264.793 368.1 263.78 368.1ZM263.78 366.84C264.527 366.84 265.193 366.673 265.78 366.34C266.38 365.993 266.847 365.507 267.18 364.88C267.513 364.253 267.68 363.54 267.68 362.74C267.68 361.94 267.513 361.227 267.18 360.6C266.847 359.973 266.38 359.493 265.78 359.16C265.193 358.813 264.527 358.64 263.78 358.64C263.033 358.64 262.36 358.813 261.76 359.16C261.173 359.493 260.707 359.973 260.36 360.6C260.027 361.227 259.86 361.94 259.86 362.74C259.86 363.54 260.027 364.253 260.36 364.88C260.707 365.507 261.173 365.993 261.76 366.34C262.36 366.673 263.033 366.84 263.78 366.84ZM271.434 361.96H276.674V363.2H271.434V361.96ZM298.922 354L294.202 368H292.642L288.542 356.06L284.422 368H282.882L278.162 354H279.682L283.722 366.04L287.902 354H289.282L293.402 366.1L297.502 354H298.922ZM303.316 368.1C302.462 368.1 301.642 367.98 300.856 367.74C300.082 367.487 299.476 367.173 299.036 366.8L299.676 365.68C300.116 366.027 300.669 366.313 301.336 366.54C302.002 366.753 302.696 366.86 303.416 366.86C304.376 366.86 305.082 366.713 305.536 366.42C306.002 366.113 306.236 365.687 306.236 365.14C306.236 364.753 306.109 364.453 305.856 364.24C305.602 364.013 305.282 363.847 304.896 363.74C304.509 363.62 303.996 363.507 303.356 363.4C302.502 363.24 301.816 363.08 301.296 362.92C300.776 362.747 300.329 362.46 299.956 362.06C299.596 361.66 299.416 361.107 299.416 360.4C299.416 359.52 299.782 358.8 300.516 358.24C301.249 357.68 302.269 357.4 303.576 357.4C304.256 357.4 304.936 357.493 305.616 357.68C306.296 357.853 306.856 358.087 307.296 358.38L306.676 359.52C305.809 358.92 304.776 358.62 303.576 358.62C302.669 358.62 301.982 358.78 301.516 359.1C301.062 359.42 300.836 359.84 300.836 360.36C300.836 360.76 300.962 361.08 301.216 361.32C301.482 361.56 301.809 361.74 302.196 361.86C302.582 361.967 303.116 362.08 303.796 362.2C304.636 362.36 305.309 362.52 305.816 362.68C306.322 362.84 306.756 363.113 307.116 363.5C307.476 363.887 307.656 364.42 307.656 365.1C307.656 366.02 307.269 366.753 306.496 367.3C305.736 367.833 304.676 368.1 303.316 368.1ZM314.641 368.1C313.601 368.1 312.667 367.873 311.841 367.42C311.027 366.967 310.387 366.333 309.921 365.52C309.454 364.693 309.221 363.767 309.221 362.74C309.221 361.713 309.454 360.793 309.921 359.98C310.387 359.167 311.027 358.533 311.841 358.08C312.667 357.627 313.601 357.4 314.641 357.4C315.547 357.4 316.354 357.58 317.061 357.94C317.781 358.287 318.347 358.8 318.761 359.48L317.701 360.2C317.354 359.68 316.914 359.293 316.381 359.04C315.847 358.773 315.267 358.64 314.641 358.64C313.881 358.64 313.194 358.813 312.581 359.16C311.981 359.493 311.507 359.973 311.161 360.6C310.827 361.227 310.661 361.94 310.661 362.74C310.661 363.553 310.827 364.273 311.161 364.9C311.507 365.513 311.981 365.993 312.581 366.34C313.194 366.673 313.881 366.84 314.641 366.84C315.267 366.84 315.847 366.713 316.381 366.46C316.914 366.207 317.354 365.82 317.701 365.3L318.761 366.02C318.347 366.7 317.781 367.22 317.061 367.58C316.341 367.927 315.534 368.1 314.641 368.1ZM326.754 357.4C328.074 357.4 329.121 357.787 329.894 358.56C330.681 359.32 331.074 360.433 331.074 361.9V368H329.654V362.04C329.654 360.947 329.381 360.113 328.834 359.54C328.287 358.967 327.507 358.68 326.494 358.68C325.361 358.68 324.461 359.02 323.794 359.7C323.141 360.367 322.814 361.293 322.814 362.48V368H321.394V353.16H322.814V359.32C323.201 358.707 323.734 358.233 324.414 357.9C325.094 357.567 325.874 357.4 326.754 357.4ZM339.268 368.1C338.255 368.1 337.342 367.873 336.528 367.42C335.715 366.953 335.075 366.313 334.608 365.5C334.142 364.687 333.908 363.767 333.908 362.74C333.908 361.713 334.142 360.793 334.608 359.98C335.075 359.167 335.715 358.533 336.528 358.08C337.342 357.627 338.255 357.4 339.268 357.4C340.282 357.4 341.195 357.627 342.008 358.08C342.822 358.533 343.455 359.167 343.908 359.98C344.375 360.793 344.608 361.713 344.608 362.74C344.608 363.767 344.375 364.687 343.908 365.5C343.455 366.313 342.822 366.953 342.008 367.42C341.195 367.873 340.282 368.1 339.268 368.1ZM339.268 366.84C340.015 366.84 340.682 366.673 341.268 366.34C341.868 365.993 342.335 365.507 342.668 364.88C343.002 364.253 343.168 363.54 343.168 362.74C343.168 361.94 343.002 361.227 342.668 360.6C342.335 359.973 341.868 359.493 341.268 359.16C340.682 358.813 340.015 358.64 339.268 358.64C338.522 358.64 337.848 358.813 337.248 359.16C336.662 359.493 336.195 359.973 335.848 360.6C335.515 361.227 335.348 361.94 335.348 362.74C335.348 363.54 335.515 364.253 335.848 364.88C336.195 365.507 336.662 365.993 337.248 366.34C337.848 366.673 338.522 366.84 339.268 366.84ZM357.107 353.16V368H355.747V365.92C355.321 366.627 354.754 367.167 354.047 367.54C353.354 367.913 352.567 368.1 351.687 368.1C350.701 368.1 349.807 367.873 349.007 367.42C348.207 366.967 347.581 366.333 347.127 365.52C346.674 364.707 346.447 363.78 346.447 362.74C346.447 361.7 346.674 360.773 347.127 359.96C347.581 359.147 348.207 358.52 349.007 358.08C349.807 357.627 350.701 357.4 351.687 357.4C352.541 357.4 353.307 357.58 353.987 357.94C354.681 358.287 355.247 358.8 355.687 359.48V353.16H357.107ZM351.807 366.84C352.541 366.84 353.201 366.673 353.787 366.34C354.387 365.993 354.854 365.507 355.187 364.88C355.534 364.253 355.707 363.54 355.707 362.74C355.707 361.94 355.534 361.227 355.187 360.6C354.854 359.973 354.387 359.493 353.787 359.16C353.201 358.813 352.541 358.64 351.807 358.64C351.061 358.64 350.387 358.813 349.787 359.16C349.201 359.493 348.734 359.973 348.387 360.6C348.054 361.227 347.887 361.94 347.887 362.74C347.887 363.54 348.054 364.253 348.387 364.88C348.734 365.507 349.201 365.993 349.787 366.34C350.387 366.673 351.061 366.84 351.807 366.84ZM366.422 357.4C367.742 357.4 368.789 357.787 369.562 358.56C370.349 359.32 370.742 360.433 370.742 361.9V368H369.322V362.04C369.322 360.947 369.049 360.113 368.502 359.54C367.955 358.967 367.175 358.68 366.162 358.68C365.029 358.68 364.129 359.02 363.462 359.7C362.809 360.367 362.482 361.293 362.482 362.48V368H361.062V357.48H362.422V359.42C362.809 358.78 363.342 358.287 364.022 357.94C364.715 357.58 365.515 357.4 366.422 357.4ZM374.597 357.48H376.017V368H374.597V357.48ZM375.317 355.18C375.024 355.18 374.777 355.08 374.577 354.88C374.377 354.68 374.277 354.44 374.277 354.16C374.277 353.893 374.377 353.66 374.577 353.46C374.777 353.26 375.024 353.16 375.317 353.16C375.611 353.16 375.857 353.26 376.057 353.46C376.257 353.647 376.357 353.873 376.357 354.14C376.357 354.433 376.257 354.68 376.057 354.88C375.857 355.08 375.611 355.18 375.317 355.18ZM383.648 357.4C385.022 357.4 386.075 357.747 386.808 358.44C387.542 359.12 387.908 360.133 387.908 361.48V368H386.548V366.36C386.228 366.907 385.755 367.333 385.128 367.64C384.515 367.947 383.782 368.1 382.928 368.1C381.755 368.1 380.822 367.82 380.128 367.26C379.435 366.7 379.088 365.96 379.088 365.04C379.088 364.147 379.408 363.427 380.048 362.88C380.702 362.333 381.735 362.06 383.148 362.06H386.488V361.42C386.488 360.513 386.235 359.827 385.728 359.36C385.222 358.88 384.482 358.64 383.508 358.64C382.842 358.64 382.202 358.753 381.588 358.98C380.975 359.193 380.448 359.493 380.008 359.88L379.368 358.82C379.902 358.367 380.542 358.02 381.288 357.78C382.035 357.527 382.822 357.4 383.648 357.4ZM383.148 366.98C383.948 366.98 384.635 366.8 385.208 366.44C385.782 366.067 386.208 365.533 386.488 364.84V363.12H383.188C381.388 363.12 380.488 363.747 380.488 365C380.488 365.613 380.722 366.1 381.188 366.46C381.655 366.807 382.308 366.98 383.148 366.98Z" fill="black"/>
    <path d="M215.655 166.6H217.855V180.086H226.193V182H215.655V166.6ZM234.353 182.132C233.194 182.132 232.153 181.875 231.229 181.362C230.305 180.849 229.579 180.145 229.051 179.25C228.538 178.341 228.281 177.314 228.281 176.17C228.281 175.026 228.538 174.007 229.051 173.112C229.579 172.203 230.305 171.499 231.229 171C232.153 170.487 233.194 170.23 234.353 170.23C235.512 170.23 236.546 170.487 237.455 171C238.379 171.499 239.098 172.203 239.611 173.112C240.139 174.007 240.403 175.026 240.403 176.17C240.403 177.314 240.139 178.341 239.611 179.25C239.098 180.145 238.379 180.849 237.455 181.362C236.546 181.875 235.512 182.132 234.353 182.132ZM234.353 180.284C235.101 180.284 235.768 180.115 236.355 179.778C236.956 179.426 237.426 178.942 237.763 178.326C238.1 177.695 238.269 176.977 238.269 176.17C238.269 175.363 238.1 174.652 237.763 174.036C237.426 173.405 236.956 172.921 236.355 172.584C235.768 172.247 235.101 172.078 234.353 172.078C233.605 172.078 232.93 172.247 232.329 172.584C231.742 172.921 231.273 173.405 230.921 174.036C230.584 174.652 230.415 175.363 230.415 176.17C230.415 176.977 230.584 177.695 230.921 178.326C231.273 178.942 231.742 179.426 232.329 179.778C232.93 180.115 233.605 180.284 234.353 180.284ZM248.956 176.566L246.536 178.81V182H244.424V165.676H246.536V176.148L252.894 170.34H255.446L250.54 175.158L255.93 182H253.334L248.956 176.566ZM263.111 170.23C264.725 170.23 265.957 170.626 266.807 171.418C267.673 172.21 268.105 173.391 268.105 174.96V182H266.103V180.46C265.751 181.003 265.245 181.421 264.585 181.714C263.94 181.993 263.17 182.132 262.275 182.132C260.97 182.132 259.921 181.817 259.129 181.186C258.352 180.555 257.963 179.727 257.963 178.7C257.963 177.673 258.337 176.852 259.085 176.236C259.833 175.605 261.021 175.29 262.649 175.29H265.993V174.872C265.993 173.963 265.729 173.266 265.201 172.782C264.673 172.298 263.896 172.056 262.869 172.056C262.18 172.056 261.505 172.173 260.845 172.408C260.185 172.628 259.628 172.929 259.173 173.31L258.293 171.726C258.895 171.242 259.613 170.875 260.449 170.626C261.285 170.362 262.173 170.23 263.111 170.23ZM262.627 180.504C263.434 180.504 264.131 180.328 264.717 179.976C265.304 179.609 265.729 179.096 265.993 178.436V176.808H262.737C260.948 176.808 260.053 177.409 260.053 178.612C260.053 179.199 260.281 179.661 260.735 179.998C261.19 180.335 261.821 180.504 262.627 180.504ZM273.114 165.676H275.226V182H273.114V165.676ZM280.358 170.34H282.47V182H280.358V170.34ZM281.414 168.096C281.004 168.096 280.659 167.964 280.38 167.7C280.116 167.436 279.984 167.113 279.984 166.732C279.984 166.351 280.116 166.028 280.38 165.764C280.659 165.485 281.004 165.346 281.414 165.346C281.825 165.346 282.162 165.478 282.426 165.742C282.705 165.991 282.844 166.307 282.844 166.688C282.844 167.084 282.705 167.421 282.426 167.7C282.162 167.964 281.825 168.096 281.414 168.096ZM296.249 180.262V182H286.481V180.636L293.367 172.078H286.613V170.34H296.073V171.726L289.187 180.262H296.249ZM304.422 170.23C306.035 170.23 307.267 170.626 308.118 171.418C308.983 172.21 309.416 173.391 309.416 174.96V182H307.414V180.46C307.062 181.003 306.556 181.421 305.896 181.714C305.25 181.993 304.48 182.132 303.586 182.132C302.28 182.132 301.232 181.817 300.44 181.186C299.662 180.555 299.274 179.727 299.274 178.7C299.274 177.673 299.648 176.852 300.396 176.236C301.144 175.605 302.332 175.29 303.96 175.29H307.304V174.872C307.304 173.963 307.04 173.266 306.512 172.782C305.984 172.298 305.206 172.056 304.18 172.056C303.49 172.056 302.816 172.173 302.156 172.408C301.496 172.628 300.938 172.929 300.484 173.31L299.604 171.726C300.205 171.242 300.924 170.875 301.76 170.626C302.596 170.362 303.483 170.23 304.422 170.23ZM303.938 180.504C304.744 180.504 305.441 180.328 306.028 179.976C306.614 179.609 307.04 179.096 307.304 178.436V176.808H304.048C302.258 176.808 301.364 177.409 301.364 178.612C301.364 179.199 301.591 179.661 302.046 179.998C302.5 180.335 303.131 180.504 303.938 180.504ZM319.571 182.132C318.383 182.132 317.319 181.875 316.381 181.362C315.457 180.849 314.731 180.145 314.203 179.25C313.675 178.341 313.411 177.314 313.411 176.17C313.411 175.026 313.675 174.007 314.203 173.112C314.731 172.203 315.457 171.499 316.381 171C317.319 170.487 318.383 170.23 319.571 170.23C320.627 170.23 321.565 170.443 322.387 170.868C323.223 171.293 323.868 171.909 324.323 172.716L322.717 173.75C322.35 173.193 321.895 172.775 321.353 172.496C320.81 172.217 320.209 172.078 319.549 172.078C318.786 172.078 318.097 172.247 317.481 172.584C316.879 172.921 316.403 173.405 316.051 174.036C315.713 174.652 315.545 175.363 315.545 176.17C315.545 176.991 315.713 177.717 316.051 178.348C316.403 178.964 316.879 179.441 317.481 179.778C318.097 180.115 318.786 180.284 319.549 180.284C320.209 180.284 320.81 180.145 321.353 179.866C321.895 179.587 322.35 179.169 322.717 178.612L324.323 179.624C323.868 180.431 323.223 181.054 322.387 181.494C321.565 181.919 320.627 182.132 319.571 182.132ZM326.661 186.4C326.148 186.4 325.671 186.341 325.231 186.224C324.791 186.107 324.424 185.931 324.131 185.696L324.813 184.068C325.253 184.435 325.825 184.618 326.529 184.618C327.086 184.618 327.512 184.442 327.805 184.09C328.113 183.753 328.267 183.247 328.267 182.572V170.34H330.379V182.528C330.379 183.731 330.056 184.677 329.411 185.366C328.766 186.055 327.849 186.4 326.661 186.4ZM329.323 168.096C328.912 168.096 328.568 167.964 328.289 167.7C328.025 167.436 327.893 167.113 327.893 166.732C327.893 166.351 328.025 166.028 328.289 165.764C328.568 165.485 328.912 165.346 329.323 165.346C329.734 165.346 330.071 165.478 330.335 165.742C330.614 165.991 330.753 166.307 330.753 166.688C330.753 167.084 330.614 167.421 330.335 167.7C330.071 167.964 329.734 168.096 329.323 168.096ZM339.755 170.23C341.368 170.23 342.6 170.626 343.451 171.418C344.316 172.21 344.749 173.391 344.749 174.96V182H342.747V180.46C342.395 181.003 341.889 181.421 341.229 181.714C340.584 181.993 339.814 182.132 338.919 182.132C337.614 182.132 336.565 181.817 335.773 181.186C334.996 180.555 334.607 179.727 334.607 178.7C334.607 177.673 334.981 176.852 335.729 176.236C336.477 175.605 337.665 175.29 339.293 175.29H342.637V174.872C342.637 173.963 342.373 173.266 341.845 172.782C341.317 172.298 340.54 172.056 339.513 172.056C338.824 172.056 338.149 172.173 337.489 172.408C336.829 172.628 336.272 172.929 335.817 173.31L334.937 171.726C335.538 171.242 336.257 170.875 337.093 170.626C337.929 170.362 338.816 170.23 339.755 170.23ZM339.271 180.504C340.078 180.504 340.774 180.328 341.361 179.976C341.948 179.609 342.373 179.096 342.637 178.436V176.808H339.381C337.592 176.808 336.697 177.409 336.697 178.612C336.697 179.199 336.924 179.661 337.379 179.998C337.834 180.335 338.464 180.504 339.271 180.504Z" fill="black"/>
    <path d="M251.486 268.671C251.486 268.671 238.651 272.289 236.033 279.086C234.388 283.356 239.119 287.43 236.033 290.804C231.84 295.388 227.013 284.006 221.013 285.596C213.55 287.573 214.08 296.156 210.758 302.521C207.437 308.886 216.102 310.622 216.102 310.622C216.102 310.622 221.859 311.56 225.345 310.622C230.4 309.263 231.399 304.959 236.033 302.521C239.195 300.858 243.146 302.482 244.554 299.194C245.332 297.377 243.495 295.8 244.554 294.131C246.417 291.193 249.752 296.387 253.219 296.156C255.925 295.977 257.264 293.356 259.863 294.131C263.345 295.168 260.35 301.091 260.874 304.691C261.885 311.635 266.933 314.977 270.984 315.396C278.277 316.15 262.016 293.156 268.962 290.804C273.72 289.193 278.349 296.156 278.349 296.156L283.26 302.521C283.26 302.521 282.691 306.38 283.26 308.742C284.384 313.412 291.348 318 291.348 318C291.348 318 295.641 313.811 295.103 310.622C294.693 308.194 290.735 303.605 291.348 301.219C292.647 296.156 299.709 305.918 302.468 302.521C304.533 299.98 302.468 294.131 302.468 294.131C302.468 294.131 301.755 283.03 306.512 282.558C308.571 282.354 311.567 284.149 311.567 284.149C311.567 284.149 317.418 282.393 321.244 282.558C325.578 282.745 327.619 285.119 331.931 285.596C339.037 286.383 350.482 289.701 349.984 282.558C349.627 277.442 341.652 278.884 340.019 274.023C338.463 269.392 343.242 266.527 342.33 261.727C341.468 257.197 336.297 256.212 336.264 251.601C336.223 245.892 348.534 244.915 345.363 240.172C343.288 237.07 337.688 240.73 336.264 237.279C335.553 235.556 337.128 234.157 336.264 232.505C335.334 230.729 333.521 230.977 331.931 229.757C325.695 224.971 323.812 220.123 321.244 212.687C319.391 207.324 321.623 203.279 318.788 198.366C311.561 185.839 304.924 227.008 299.147 229.757C293.37 232.506 291.348 223.392 291.348 218.473C291.348 213.555 283.26 212.687 280.083 214.712C276.905 216.737 265.351 237.279 265.351 237.279C265.351 237.279 259.212 238.689 256.974 241.619C253.788 245.793 254.621 253.436 259.863 253.626C263.458 253.757 261.093 248.997 263 248.997M275.153 239C276.023 234.912 279.971 232.554 283.26 234.097C285.644 235.215 284.052 238.513 284.032 241M287 243.121C288.345 242.904 290.178 242.798 291.348 243.5C292.936 244.452 291.82 246.006 289.967 247.5M236.033 240.172C238.699 238.178 242.162 237.855 244.554 240.172C247.027 242.568 244.304 245.56 244.554 248.997C244.975 254.798 250.163 258.469 247.442 263.608C244.442 269.274 233.722 270.696 229.678 267.369C225.634 264.042 235.384 258.434 236.033 251.601C236.455 247.158 232.463 242.843 236.033 240.172Z" stroke="black" stroke-width="2" stroke-linecap="round"/>
    <circle cx="261" cy="277" r="2" fill="black"/>
    <path d="M291.234 253.54C291.234 264.102 276.951 275.706 276.951 275.706C276.951 275.706 261.775 264.548 262.668 253.54C262.668 245.569 269.062 239.106 276.951 239.106C284.839 239.106 291.234 245.569 291.234 253.54Z" stroke="#00BBFF" stroke-width="2" stroke-linejoin="round"/>
    <circle cx="276.951" cy="253.389" r="8.03415" stroke="#00BBFF" stroke-width="2" stroke-linejoin="round"/>
    <path d="M216.698 37.117L212.837 41.032V46H210.839V27.1H212.837V38.521L223.934 27.1H226.229L218.048 35.659L226.796 46H224.42L216.698 37.117ZM244.29 46L239.97 39.925C239.484 39.979 238.98 40.006 238.458 40.006H233.382V46H231.384V27.1H238.458C240.87 27.1 242.76 27.676 244.128 28.828C245.496 29.98 246.18 31.564 246.18 33.58C246.18 35.056 245.802 36.307 245.046 37.333C244.308 38.341 243.246 39.07 241.86 39.52L246.477 46H244.29ZM238.404 38.305C240.276 38.305 241.707 37.891 242.697 37.063C243.687 36.235 244.182 35.074 244.182 33.58C244.182 32.05 243.687 30.88 242.697 30.07C241.707 29.242 240.276 28.828 238.404 28.828H233.382V38.305H238.404ZM258.462 39.466V46H256.491V39.466L248.931 27.1H251.064L257.544 37.711L264.024 27.1H266.022L258.462 39.466ZM274.011 28.828H267.369V27.1H282.651V28.828H276.009V46H274.011V28.828ZM300.558 44.272V46H287.193V27.1H300.153V28.828H289.191V35.551H298.965V37.252H289.191V44.272H300.558ZM319.51 46L315.19 39.925C314.704 39.979 314.2 40.006 313.678 40.006H308.602V46H306.604V27.1H313.678C316.09 27.1 317.98 27.676 319.348 28.828C320.716 29.98 321.4 31.564 321.4 33.58C321.4 35.056 321.022 36.307 320.266 37.333C319.528 38.341 318.466 39.07 317.08 39.52L321.697 46H319.51ZM313.624 38.305C315.496 38.305 316.927 37.891 317.917 37.063C318.907 36.235 319.402 35.074 319.402 33.58C319.402 32.05 318.907 30.88 317.917 30.07C316.927 29.242 315.496 28.828 313.624 28.828H308.602V38.305H313.624ZM327.466 27.1H329.464V46H327.466V27.1ZM348.817 40.951H338.287L336.019 46H333.94L342.58 27.1H344.551L353.191 46H351.085L348.817 40.951ZM348.088 39.331L343.552 29.179L339.016 39.331H348.088ZM163.622 60.61V65.605H172.37V69.115H163.622V76H159.248V57.1H173.531V60.61H163.622ZM177.842 57.1H182.216V76H177.842V57.1ZM205.385 57.1V76H201.794L192.371 64.525V76H188.051V57.1H191.669L201.065 68.575V57.1H205.385ZM223.654 71.95H214.879L213.205 76H208.723L217.147 57.1H221.467L229.918 76H225.328L223.654 71.95ZM222.277 68.629L219.28 61.393L216.283 68.629H222.277ZM250.563 57.1V76H246.972L237.549 64.525V76H233.229V57.1H236.847L246.243 68.575V57.1H250.563ZM262.594 76.324C261.1 76.324 259.651 76.126 258.247 75.73C256.861 75.316 255.745 74.785 254.899 74.137L256.384 70.843C257.194 71.437 258.157 71.914 259.273 72.274C260.389 72.634 261.505 72.814 262.621 72.814C263.863 72.814 264.781 72.634 265.375 72.274C265.969 71.896 266.266 71.401 266.266 70.789C266.266 70.339 266.086 69.97 265.726 69.682C265.384 69.376 264.934 69.133 264.376 68.953C263.836 68.773 263.098 68.575 262.162 68.359C260.722 68.017 259.543 67.675 258.625 67.333C257.707 66.991 256.915 66.442 256.249 65.686C255.601 64.93 255.277 63.922 255.277 62.662C255.277 61.564 255.574 60.574 256.168 59.692C256.762 58.792 257.653 58.081 258.841 57.559C260.047 57.037 261.514 56.776 263.242 56.776C264.448 56.776 265.627 56.92 266.779 57.208C267.931 57.496 268.939 57.91 269.803 58.45L268.453 61.771C266.707 60.781 264.961 60.286 263.215 60.286C261.991 60.286 261.082 60.484 260.488 60.88C259.912 61.276 259.624 61.798 259.624 62.446C259.624 63.094 259.957 63.58 260.623 63.904C261.307 64.21 262.342 64.516 263.728 64.822C265.168 65.164 266.347 65.506 267.265 65.848C268.183 66.19 268.966 66.73 269.614 67.468C270.28 68.206 270.613 69.205 270.613 70.465C270.613 71.545 270.307 72.535 269.695 73.435C269.101 74.317 268.201 75.019 266.995 75.541C265.789 76.063 264.322 76.324 262.594 76.324ZM284.105 76.324C282.143 76.324 280.37 75.901 278.786 75.055C277.22 74.209 275.987 73.048 275.087 71.572C274.205 70.078 273.764 68.404 273.764 66.55C273.764 64.696 274.205 63.031 275.087 61.555C275.987 60.061 277.22 58.891 278.786 58.045C280.37 57.199 282.143 56.776 284.105 56.776C286.067 56.776 287.831 57.199 289.397 58.045C290.963 58.891 292.196 60.061 293.096 61.555C293.996 63.031 294.446 64.696 294.446 66.55C294.446 68.404 293.996 70.078 293.096 71.572C292.196 73.048 290.963 74.209 289.397 75.055C287.831 75.901 286.067 76.324 284.105 76.324ZM284.105 72.598C285.221 72.598 286.229 72.346 287.129 71.842C288.029 71.32 288.731 70.6 289.235 69.682C289.757 68.764 290.018 67.72 290.018 66.55C290.018 65.38 289.757 64.336 289.235 63.418C288.731 62.5 288.029 61.789 287.129 61.285C286.229 60.763 285.221 60.502 284.105 60.502C282.989 60.502 281.981 60.763 281.081 61.285C280.181 61.789 279.47 62.5 278.948 63.418C278.444 64.336 278.192 65.38 278.192 66.55C278.192 67.72 278.444 68.764 278.948 69.682C279.47 70.6 280.181 71.32 281.081 71.842C281.981 72.346 282.989 72.598 284.105 72.598ZM327.017 57.1L320.834 76H316.136L311.978 63.202L307.685 76H303.014L296.804 57.1H301.34L305.606 70.384L310.061 57.1H314.111L318.431 70.492L322.832 57.1H327.017ZM342.623 71.95H333.848L332.174 76H327.692L336.116 57.1H340.436L348.887 76H344.297L342.623 71.95ZM341.246 68.629L338.249 61.393L335.252 68.629H341.246ZM369.531 57.1V76H365.94L356.517 64.525V76H352.197V57.1H355.815L365.211 68.575V57.1H369.531ZM375.353 57.1H379.727V76H375.353V57.1ZM398.009 71.95H389.234L387.56 76H383.078L391.502 57.1H395.822L404.273 76H399.683L398.009 71.95ZM396.632 68.629L393.635 61.393L390.638 68.629H396.632Z" fill="black"/>
</svg>