<svg width="100" height="54" viewBox="0 0 100 54" fill="none" xmlns="http://www.w3.org/2000/svg">
    <path d="M91.9354 50.5022H66.4677C69.5015 45.9652 82.258 26.3817 82.258 17.9201C82.258 13.1674 80.3887 8.60936 77.0615 5.24869C73.7342 1.88801 69.2215 0 64.5161 0C59.8106 0 55.2979 1.88801 51.9706 5.24869C48.6434 8.60936 46.7741 13.1674 46.7741 17.9201C46.7741 26.3817 59.5306 45.9652 62.5644 50.5022H45.1612V30.953C45.1612 30.7001 45.1029 30.4506 44.991 30.2244C44.879 29.9982 44.7164 29.8014 44.5161 29.6497L31.6129 19.8751C31.3337 19.6636 30.9941 19.5492 30.6451 19.5492C30.2961 19.5492 29.9566 19.6636 29.6774 19.8751L16.7742 29.6497C16.5739 29.8014 16.4113 29.9982 16.2993 30.2244C16.1873 30.4506 16.129 30.7001 16.129 30.953V50.5022H1.6129C1.18513 50.5022 0.774886 50.6739 0.472408 50.9794C0.16993 51.2849 0 51.6993 0 52.1313C0 52.5634 0.16993 52.9778 0.472408 53.2833C0.774886 53.5888 1.18513 53.7604 1.6129 53.7604H91.9354C92.3632 53.7604 92.7734 53.5888 93.0759 53.2833C93.3784 52.9778 93.5483 52.5634 93.5483 52.1313C93.5483 51.6993 93.3784 51.2849 93.0759 50.9794C92.7734 50.6739 92.3632 50.5022 91.9354 50.5022ZM64.5161 3.25821C68.3647 3.26252 72.0544 4.80864 74.7758 7.55735C77.4972 10.3061 79.0279 14.0329 79.0322 17.9201C79.0322 24.2639 69.5354 39.9798 64.5161 47.5975C59.4967 39.9815 49.9999 24.2736 49.9999 17.9201C50.0042 14.0329 51.535 10.3061 54.2563 7.55735C56.9777 4.80864 60.6675 3.26252 64.5161 3.25821ZM27.4193 50.5022V40.7276H33.8709V50.5022H27.4193ZM37.0967 50.5022V39.0985C37.0967 38.6664 36.9268 38.2521 36.6243 37.9465C36.3218 37.641 35.9116 37.4694 35.4838 37.4694H25.8064C25.3787 37.4694 24.9684 37.641 24.6659 37.9465C24.3635 38.2521 24.1935 38.6664 24.1935 39.0985V50.5022H19.3548V31.7675L30.6451 23.2147L41.9354 31.7675V50.5022H37.0967Z" fill="#00BBFF"/>
    <path d="M98.3872 50.5022H96.7743C96.3465 50.5022 95.9363 50.6738 95.6338 50.9793C95.3313 51.2849 95.1614 51.6992 95.1614 52.1313C95.1614 52.5634 95.3313 52.9777 95.6338 53.2833C95.9363 53.5888 96.3465 53.7604 96.7743 53.7604H98.3872C98.8149 53.7604 99.2252 53.5888 99.5277 53.2833C99.8302 52.9777 100 52.5634 100 52.1313C100 51.6992 99.8302 51.2849 99.5277 50.9793C99.2252 50.6738 98.8149 50.5022 98.3872 50.5022Z" fill="#00BBFF"/>
    <path d="M72.5809 17.9202C72.5809 16.3092 72.108 14.7343 71.2218 13.3948C70.3357 12.0552 69.0762 11.0112 67.6026 10.3947C66.129 9.77819 64.5075 9.61688 62.9431 9.93118C61.3787 10.2455 59.9418 11.0213 58.8139 12.1604C57.6861 13.2996 56.918 14.751 56.6069 16.3311C56.2957 17.9111 56.4554 19.5489 57.0658 21.0373C57.6762 22.5257 58.7098 23.7979 60.036 24.6929C61.3622 25.588 62.9214 26.0657 64.5164 26.0657C66.6545 26.0631 68.7042 25.2041 70.2161 23.6771C71.7279 22.1501 72.5784 20.0797 72.5809 17.9202ZM59.6777 17.9202C59.6777 16.9536 59.9615 16.0087 60.4932 15.2049C61.0249 14.4012 61.7806 13.7748 62.6647 13.4049C63.5489 13.035 64.5218 12.9382 65.4604 13.1268C66.399 13.3154 67.2612 13.7808 67.9379 14.4643C68.6146 15.1478 69.0754 16.0187 69.2621 16.9667C69.4489 17.9148 69.353 18.8974 68.9868 19.7905C68.6206 20.6835 68.0004 21.4468 67.2047 21.9838C66.4089 22.5209 65.4734 22.8075 64.5164 22.8075C63.2331 22.8075 62.0024 22.2926 61.0949 21.376C60.1875 20.4595 59.6777 19.2164 59.6777 17.9202Z" fill="#00BBFF"/>
</svg>
