<svg width="57" height="79" viewBox="0 0 57 79" fill="none" xmlns="http://www.w3.org/2000/svg">
    <path d="M39.86 64.1003C35.336 68.1292 30.1414 69.8963 25.7132 70.2348C23.4976 70.4041 21.4934 70.2142 19.8779 69.7849C18.2411 69.35 17.0944 68.6948 16.4853 68.011C15.8683 67.3182 15.334 66.1105 15.0691 64.46C14.8072 62.8284 14.8224 60.8443 15.2269 58.6844C16.0349 54.37 18.385 49.4136 23.0673 45.2437C27.7091 41.11 33.3347 39.6021 38.0467 39.3803C40.4009 39.2694 42.5025 39.4813 44.1042 39.8336C44.9058 40.0099 45.5655 40.2177 46.0609 40.4284C46.5835 40.6507 46.8297 40.8372 46.9045 40.9212C46.9727 40.9979 47.1259 41.2592 47.2798 41.8126C47.425 42.335 47.5456 43.0236 47.6169 43.8521C47.7594 45.507 47.6995 47.6475 47.2984 49.9941C46.4948 54.6949 44.3441 60.107 39.86 64.1003Z" stroke="#00BBFF" stroke-width="2" stroke-linecap="round"/>
    <path d="M39.3737 44.3057C28.0256 44.3057 20.1084 51.6212 19.0527 62.5945" stroke="black" stroke-width="2" stroke-linecap="round"/>
    <path d="M44.6086 42.9505C44.6086 42.9505 52.7367 38.209 47.6568 28.7258C41.772 19.5718 27.9654 32.2423 23.0303 23.4688" stroke="#00BBFF" stroke-width="2" stroke-linecap="round"/>
    <path d="M33.7386 21.2442C32.0392 23.7626 29.6418 24.4031 27.5765 24.4052C26.537 24.4063 25.5999 24.243 24.9201 24.0773C24.5818 23.9948 24.3115 23.9129 24.1292 23.8528C24.1064 23.8453 24.0849 23.8382 24.065 23.8314C24.0523 23.8173 24.0389 23.8023 24.0248 23.7864C23.9011 23.6467 23.724 23.4363 23.5211 23.1644C23.1134 22.6178 22.6128 21.8376 22.2292 20.8967C21.4712 19.0374 21.1721 16.5838 22.9432 13.9593C24.779 11.2388 28.1905 9.27275 31.2872 7.97418C32.8144 7.33378 34.2222 6.87315 35.248 6.57286C35.4605 6.51063 35.6564 6.45537 35.8332 6.40691C35.8547 6.59885 35.8772 6.81315 35.8994 7.0473C36.0024 8.13214 36.1001 9.63604 36.0795 11.3123C36.0376 14.7172 35.5074 18.6231 33.7386 21.2442Z" stroke="#00BBFF" stroke-width="2" stroke-linecap="round"/>
    <path d="M13.3125 22.651C15.9077 21.0715 18.3536 21.4898 20.2315 22.3496C21.1767 22.7824 21.96 23.3218 22.5087 23.7561C22.7818 23.9722 22.9932 24.1595 23.1339 24.2901C23.1515 24.3064 23.1679 24.3219 23.1833 24.3364C23.1889 24.3544 23.1948 24.3736 23.201 24.394C23.2551 24.5726 23.3283 24.8377 23.3992 25.1695C23.5417 25.8363 23.671 26.7542 23.627 27.7694C23.54 29.7753 22.788 32.1299 20.0833 33.776C17.2797 35.4823 13.3591 35.8455 10.003 35.7334C8.34788 35.6782 6.87633 35.5094 5.81882 35.3542C5.59969 35.3221 5.39864 35.2906 5.21774 35.2608C5.27828 35.0774 5.34729 34.8733 5.42478 34.6512C5.78382 33.6223 6.32259 32.2149 7.04078 30.7002C8.49963 27.6233 10.6113 24.2949 13.3125 22.651Z" stroke="#00BBFF" stroke-width="2" stroke-linecap="round"/>
</svg>