<svg width="83" height="83" viewBox="0 0 83 83" fill="none" xmlns="http://www.w3.org/2000/svg">
    <path d="M62.204 20.6349C67.8989 20.6349 72.4547 15.9914 72.4547 10.3841C72.4547 4.68922 67.8989 0.133301 62.204 0.133301C56.5091 0.133301 51.9531 4.77683 51.9531 10.3841C51.9531 15.9914 56.5967 20.6349 62.204 20.6349ZM62.204 2.58647C66.4971 2.58647 70.0015 6.09104 70.0015 10.3841C70.0015 14.6772 66.4971 18.1817 62.204 18.1817C57.9109 18.1817 54.4063 14.6772 54.4063 10.3841C54.4063 6.09104 57.9109 2.58647 62.204 2.58647Z" fill="#00BBFF"/>
    <path d="M5.78026 80.9131C5.78026 81.614 6.30591 82.1397 7.00681 82.1397H14.5416C15.2425 82.1397 15.7682 81.614 15.7682 80.9131V72.1517H23.3906V80.9131C23.3906 81.614 23.9163 82.1397 24.6172 82.1397H32.1519C32.8528 82.1397 33.3786 81.614 33.3786 80.9131V72.1517H37.4088L38.1973 77.1457C38.4601 78.6351 39.3363 79.9493 40.6505 80.8255C41.5266 81.4387 42.5779 81.7016 43.6293 81.7016C44.0674 81.7016 44.5931 81.614 45.0312 81.5264C47.4843 80.9131 49.149 78.6351 49.149 75.9191V60.9371H49.2366H59.9254V79.5989H52.1278C51.4269 79.5989 50.9013 80.1245 50.9013 80.8255C50.9013 81.5264 51.4269 82.052 52.1278 82.052H69.2125C69.9135 82.052 70.4391 81.5264 70.4391 80.8255C70.4391 80.1245 69.9135 79.5989 69.2125 79.5989H62.3786V60.9371H71.0524C74.557 60.9371 77.4482 58.3964 77.9739 54.9794L82.1793 27.8192C82.2669 27.1183 81.8289 26.505 81.128 26.4174C80.4271 26.3298 79.8138 26.7678 79.7262 27.4688L75.5207 54.7166C75.1702 56.9069 73.2428 58.5716 71.0524 58.5716H66.4089C70.4391 57.4326 73.3303 53.6652 73.3303 49.2845V31.6742C73.3303 29.0458 72.279 26.505 70.3515 24.5775C68.424 22.65 65.9708 21.5986 63.2548 21.5986C60.5388 21.5986 57.998 22.7376 56.2457 24.4899L41.439 31.3237C41.0009 31.499 40.4753 31.5866 39.9496 31.499L29.9616 29.221C28.8226 28.9582 27.596 29.221 26.6323 29.9219C25.6685 30.7104 25.1428 31.7618 25.1428 32.9884C25.1428 33.9522 25.4933 34.9159 26.1066 35.6168H18.2213L12.0884 11.085L3.23944 11.1726L6.83158 34.3026C6.91919 34.8283 7.0068 35.2664 7.26964 35.6168H4.99171C2.53853 35.6168 0.523438 37.6319 0.523438 40.0851V72.1517H5.51737V80.9131M13.315 79.6865H8.23343V72.1517H13.315V79.6865ZM31.013 79.6865H25.9314V72.1517H31.013V79.6865ZM63.43 24.1394C65.4451 24.1394 67.285 24.9279 68.7745 26.3298C70.1763 27.7316 70.9648 29.6591 70.9648 31.6742V49.2845C70.9648 53.2272 67.7231 56.4688 63.7804 56.4688H46.871V76.0067C46.871 77.4961 45.9073 78.8103 44.5931 79.1608C43.7169 79.336 42.9284 79.2484 42.1399 78.8103C41.439 78.3723 40.9133 77.5837 40.8257 76.7952L36.2698 49.635C36.0946 48.7589 36.3574 47.9703 36.8831 47.2694C37.4088 46.6561 38.1973 46.2181 39.0734 46.2181H55.8952V31.6742C55.8076 27.5564 59.2245 24.1394 63.43 24.1394ZM43.8045 39.5594C44.0674 39.647 44.3302 39.647 44.5931 39.647C45.294 39.647 46.0825 39.4718 46.6958 39.209L53.2668 36.0549V43.7649H42.3151V39.3842L43.8045 39.5594ZM28.3846 31.937C28.735 31.6742 29.1731 31.5866 29.6111 31.6742L39.5991 33.9522C40.6505 34.215 41.7018 34.1274 42.6656 33.6893L53.9678 28.4325C53.6173 29.4838 53.442 30.5352 53.442 31.6742V33.2512L45.7321 36.931C45.294 37.1939 44.7683 37.1939 44.3303 37.1063L29.0855 34.4778C28.3846 34.3902 27.8588 33.7769 27.8588 33.076C27.7712 32.638 28.0341 32.1999 28.3846 31.937ZM9.54763 33.9522L6.39351 13.6258H10.4238L15.9434 35.7044H11.5627C10.5114 35.6168 9.72286 34.9159 9.54763 33.9522ZM3.23944 40.0851C3.23944 39.0337 4.11559 38.07 5.16695 38.07H35.5689L39.8619 38.8585V43.6773H38.9858C37.4087 43.6773 35.9193 44.3782 34.8679 45.6048C33.8166 46.8313 33.4661 48.4084 33.729 49.9854L37.0583 69.6985H3.23944V40.0851Z" fill="#00BBFF"/>
    <path d="M5.16797 54.1909H32.0654V42.4507H5.16797V54.1909ZM7.62114 44.9915H29.5246V51.7377H7.62114V44.9915Z" fill="#00BBFF"/>
    <path d="M5.16797 67.333H32.0654V55.5928H5.16797V67.333ZM7.62114 58.1336H29.5246V64.8798H7.62114V58.1336Z" fill="#00BBFF"/>
</svg>