<svg width="71" height="88" viewBox="0 0 71 88" fill="none" xmlns="http://www.w3.org/2000/svg">
    <path fill-rule="evenodd" clip-rule="evenodd" d="M62.8618 7.00925C62.8618 6.52538 63.2541 6.13312 63.7379 6.13312H66.3663C68.7857 6.13312 70.747 8.09442 70.747 10.5138V83.2331C70.747 85.6525 68.7857 87.6138 66.3663 87.6138H11.1697C8.75036 87.6138 6.78906 85.6525 6.78906 83.2331V81.0428C6.78906 80.5589 7.18132 80.1666 7.6652 80.1666C8.14908 80.1666 8.54134 80.5589 8.54134 81.0428V83.2331C8.54134 84.6847 9.71811 85.8615 11.1697 85.8615H66.3663C67.818 85.8615 68.9947 84.6847 68.9947 83.2331V10.5138C68.9947 9.06217 67.818 7.88539 66.3663 7.88539H63.7379C63.2541 7.88539 62.8618 7.49313 62.8618 7.00925Z" fill="#00BBFF"/>
    <path fill-rule="evenodd" clip-rule="evenodd" d="M18.179 0H60.2335C62.6529 0 64.6142 1.9613 64.6142 4.38068V77.1C64.6142 79.5194 62.6529 81.4807 60.2335 81.4807H5.03693C2.61755 81.4807 0.65625 79.5194 0.65625 77.1V19.275V18.5L17.3514 0H18.179ZM17.3028 2.6693L3.10787 18.3989H13.7983C15.7338 18.3989 17.3028 16.8298 17.3028 14.8943V2.6693ZM2.40852 20.1511H13.7983C16.7016 20.1511 19.0551 17.7976 19.0551 14.8943V1.75227H60.2335C61.6852 1.75227 62.8619 2.92905 62.8619 4.38068V77.1C62.8619 78.5516 61.6852 79.7284 60.2335 79.7284H5.03693C3.5853 79.7284 2.40852 78.5516 2.40852 77.1V20.1511ZM23.4347 12.2661C22.9509 12.2661 22.5586 12.6584 22.5586 13.1423C22.5586 13.6261 22.9509 14.0184 23.4347 14.0184L57.604 14.0184C58.0879 14.0184 58.4802 13.6261 58.4802 13.1422C58.4802 12.6584 58.0879 12.2661 57.604 12.2661L23.4347 12.2661ZM19.0548 20.1514C18.571 20.1514 18.1787 20.5436 18.1787 21.0275C18.1787 21.5114 18.571 21.9036 19.0548 21.9036L57.6048 21.9036C58.0887 21.9036 58.481 21.5114 58.481 21.0275C58.481 20.5436 58.0887 20.1514 57.6048 20.1514L19.0548 20.1514ZM8.54082 28.9128C8.54082 28.429 8.93308 28.0367 9.41696 28.0367H57.1664C57.6503 28.0367 58.0425 28.429 58.0425 28.9128C58.0425 29.3967 57.6503 29.789 57.1664 29.789H9.41696C8.93308 29.789 8.54082 29.3967 8.54082 28.9128ZM9.41696 35.9219C8.93308 35.9219 8.54082 36.3142 8.54082 36.7981C8.54082 37.2819 8.93308 37.6742 9.41696 37.6742H57.1664C57.6503 37.6742 58.0425 37.2819 58.0425 36.7981C58.0425 36.3142 57.6503 35.9219 57.1664 35.9219H9.41696ZM8.54082 44.6833C8.54082 44.1994 8.93308 43.8071 9.41696 43.8071H57.1664C57.6503 43.8071 58.0425 44.1994 58.0425 44.6833C58.0425 45.1672 57.6503 45.5594 57.1664 45.5594H9.41696C8.93308 45.5594 8.54082 45.1672 8.54082 44.6833ZM9.41696 51.6924C8.93308 51.6924 8.54082 52.0846 8.54082 52.5685C8.54082 53.0524 8.93308 53.4446 9.41696 53.4446H57.1664C57.6503 53.4446 58.0425 53.0524 58.0425 52.5685C58.0425 52.0846 57.6503 51.6924 57.1664 51.6924H9.41696ZM8.54082 60.4537C8.54082 59.9699 8.93308 59.5776 9.41696 59.5776H57.1664C57.6503 59.5776 58.0425 59.9699 58.0425 60.4537C58.0425 60.9376 57.6503 61.3299 57.1664 61.3299H9.41696C8.93308 61.3299 8.54082 60.9376 8.54082 60.4537ZM9.41696 67.4628C8.93308 67.4628 8.54082 67.8551 8.54082 68.339C8.54082 68.8228 8.93308 69.2151 9.41696 69.2151H57.1664C57.6503 69.2151 58.0425 68.8228 58.0425 68.339C58.0425 67.8551 57.6503 67.4628 57.1664 67.4628H9.41696Z" fill="#00BBFF"/>
</svg>