<svg width="93" height="81" viewBox="0 0 93 81" fill="none" xmlns="http://www.w3.org/2000/svg">
    <path fill-rule="evenodd" clip-rule="evenodd" d="M58.9168 6.88377C58.9168 6.47434 58.5849 6.14243 58.1754 6.14243C57.766 6.14243 57.4341 6.47434 57.4341 6.88377V8.4059C56.6595 8.44546 55.942 8.57063 55.2816 8.7814C54.4685 9.04088 53.768 9.41279 53.1798 9.89713C52.5917 10.3642 52.1333 10.935 51.8046 11.6096C51.476 12.267 51.3116 13.0021 51.3116 13.8151C51.3116 15.1298 51.7095 16.185 52.5052 16.9807C53.3182 17.7591 54.5377 18.3213 56.1638 18.6673L57.4341 18.9238V25.2527C56.4823 25.2273 55.6177 25.1079 54.8404 24.8946C53.9582 24.6351 53.1279 24.2286 52.3495 23.6751C52.1247 23.5367 51.9171 23.4761 51.7268 23.4934C51.5365 23.5107 51.3722 23.5886 51.2338 23.7269C51.1127 23.8653 51.0262 24.0383 50.9743 24.2459C50.9397 24.4362 50.957 24.6351 51.0262 24.8427C51.1127 25.0329 51.2597 25.2059 51.4673 25.3616C52.0036 25.7595 52.6003 26.0881 53.2577 26.3476C53.9323 26.6071 54.6588 26.806 55.4372 26.9444C56.0907 27.0606 56.7563 27.128 57.4341 27.1466V28.3828C57.4341 28.7922 57.766 29.1242 58.1754 29.1242C58.5849 29.1242 58.9168 28.7922 58.9168 28.3828V27.1038C59.5287 27.0477 60.0987 26.9427 60.6267 26.7887C61.457 26.5465 62.1662 26.2006 62.7543 25.7508C63.3425 25.2838 63.7922 24.7302 64.1036 24.0902C64.4149 23.4502 64.5706 22.7496 64.5706 21.9885C64.5706 20.7257 64.1468 19.7311 63.2992 19.0046C62.4689 18.2608 61.1802 17.7072 59.4331 17.344L58.9168 17.2347V10.3357C59.4486 10.392 59.9494 10.4967 60.4191 10.6496C61.1629 10.8745 61.8808 11.2464 62.5727 11.7653C62.8149 11.921 63.0311 11.9902 63.2214 11.9729C63.4289 11.9556 63.5933 11.8864 63.7144 11.7653C63.8527 11.6442 63.9479 11.4972 63.9998 11.3242C64.0517 11.1339 64.043 10.9437 63.9738 10.7534C63.9046 10.5458 63.7749 10.3642 63.5846 10.2085C62.8235 9.60306 61.9673 9.15331 61.0159 8.85925C60.3551 8.639 59.6554 8.49665 58.9168 8.4322V6.88377ZM57.4341 10.302C56.7331 10.3453 56.1107 10.4784 55.567 10.7015C54.9096 10.9783 54.3907 11.3848 54.0101 11.921C53.6469 12.4399 53.4653 13.0454 53.4653 13.7373C53.4653 14.5676 53.7161 15.2249 54.2177 15.7093C54.7367 16.1936 55.5756 16.5482 56.7346 16.7731L57.4341 16.9211V10.302ZM58.9168 19.2233V25.2042C59.9315 25.0971 60.7177 24.8296 61.2753 24.4016C62.0364 23.8134 62.417 23.0437 62.417 22.0923C62.417 21.3139 62.1402 20.7084 61.5867 20.276C61.0581 19.8326 60.1681 19.4818 58.9168 19.2233Z" fill="#00BBFF"/>
    <path fill-rule="evenodd" clip-rule="evenodd" d="M0.140625 41.1883C0.140625 40.7045 0.532885 40.3122 1.01676 40.3122H17.6634C20.5666 40.3122 22.9202 42.6658 22.9202 45.569V46.0506C23.376 45.8048 23.9874 45.501 24.7208 45.1975C26.3732 44.5138 28.6812 43.8167 31.2435 43.8167C33.8608 43.8167 36.7673 44.9958 39.3561 46.0745C39.4877 46.1293 39.6185 46.1839 39.7486 46.2382C40.9311 46.7319 42.0533 47.2004 43.1076 47.5598C44.2836 47.9607 45.2973 48.1974 46.1378 48.1974H60.156C64.1967 48.1974 66.4687 51.1487 66.7776 54.2996C67.0843 57.428 65.4847 60.9248 61.7472 62.1706L61.6123 62.2156H43.0713C42.5874 62.2156 42.1952 61.8233 42.1952 61.3395C42.1952 60.8556 42.5874 60.4633 43.0713 60.4633H61.3232C64.0648 59.4824 65.2708 56.8897 65.0337 54.4706C64.795 52.0362 63.1244 49.9497 60.156 49.9497H46.1378C45.007 49.9497 43.7756 49.6388 42.5422 49.2183C41.4286 48.8387 40.2499 48.3465 39.0781 47.8572C38.946 47.802 38.814 47.7469 38.6822 47.692C36.0142 46.5803 33.4448 45.569 31.2435 45.569C28.987 45.569 26.9143 46.1862 25.3907 46.8166C24.6323 47.1305 24.0189 47.4439 23.5979 47.677C23.3876 47.7935 23.226 47.8896 23.1189 47.9553C23.0654 47.9881 23.0255 48.0133 23.0001 48.0295L22.973 48.0471L22.9681 48.0503C22.9524 48.0607 22.9362 48.0708 22.9202 48.0801V75.3577C22.9202 78.2609 20.5666 80.6145 17.6634 80.6145H1.01676C0.532885 80.6145 0.140625 80.2222 0.140625 79.7383C0.140625 79.2545 0.532885 78.8622 1.01676 78.8622H17.6634C19.5989 78.8622 21.1679 77.2932 21.1679 75.3577V45.569C21.1679 43.6335 19.5989 42.0645 17.6634 42.0645H1.01676C0.532885 42.0645 0.140625 41.6722 0.140625 41.1883ZM14.5969 46.4451C13.3872 46.4451 12.4065 47.4258 12.4065 48.6355C12.4065 49.8452 13.3872 50.8258 14.5969 50.8258C15.8066 50.8258 16.7872 49.8452 16.7872 48.6355C16.7872 47.4258 15.8066 46.4451 14.5969 46.4451ZM10.6543 48.6355C10.6543 46.458 12.4194 44.6929 14.5969 44.6929C16.7743 44.6929 18.5395 46.458 18.5395 48.6355C18.5395 50.8129 16.7743 52.5781 14.5969 52.5781C12.4194 52.5781 10.6543 50.8129 10.6543 48.6355Z" fill="#00BBFF"/>
    <path fill-rule="evenodd" clip-rule="evenodd" d="M90.0304 56.7849C92.681 54.9117 92.6351 51.6993 91.0178 49.6292C90.2016 48.5844 88.9782 47.804 87.481 47.5774C85.984 47.3508 84.2787 47.6866 82.4963 48.753L63.6711 59.26C63.2486 59.4958 63.0972 60.0295 63.333 60.452C63.5689 60.8745 64.1026 61.0259 64.5251 60.7901L83.374 50.2698L83.3858 50.2628C84.8845 49.3635 86.1867 49.1537 87.2188 49.3099C88.2542 49.4667 89.0843 50.0005 89.637 50.708C90.7532 52.1367 90.7115 54.1692 89.0036 55.3647L88.9821 55.3798L88.9616 55.396L89.506 56.0825C88.9616 55.396 88.9617 55.3959 88.9616 55.396L88.9607 55.3968L88.9442 55.4098L88.8905 55.4522C88.8713 55.4673 88.8484 55.4854 88.8216 55.5064C88.7819 55.5376 88.734 55.5752 88.678 55.619C88.4909 55.7655 88.2145 55.9809 87.8586 56.2555C87.1467 56.8048 86.1171 57.5906 84.8485 58.5352C82.3105 60.4251 78.8193 62.948 75.0031 65.483C71.184 68.0199 67.0545 70.559 63.2375 72.4878C59.3866 74.4338 55.9733 75.6952 53.548 75.7963C48.4519 76.0087 43.6452 74.7352 39.4535 73.3742C38.5551 73.0825 37.6668 72.7805 36.8096 72.4891C35.7061 72.1139 34.6543 71.7562 33.699 71.4608C31.9891 70.932 30.4005 70.5387 29.0526 70.5387C26.5344 70.5388 24.7752 70.9972 23.6201 71.4835C23.0438 71.7262 22.6222 71.9739 22.3352 72.1707C22.1919 72.269 22.0825 72.3543 22.0045 72.4195C21.9655 72.4521 21.9343 72.4797 21.9107 72.5013C21.8989 72.5121 21.889 72.5215 21.8809 72.5292L21.8701 72.5396L21.8658 72.5439L21.8639 72.5458L21.863 72.5467C21.8625 72.5471 21.8621 72.5475 22.4816 73.1671L21.8621 72.5475C21.5199 72.8897 21.5199 73.4444 21.8621 73.7866C22.2016 74.1261 22.7504 74.1287 23.0932 73.7945C23.0935 73.7942 23.0938 73.7939 23.0942 73.7935C23.0986 73.7894 23.1098 73.7794 23.1282 73.764C23.1648 73.7334 23.2299 73.6819 23.3261 73.6159C23.5183 73.4841 23.836 73.2939 24.3001 73.0985C25.2258 72.7087 26.7521 72.2911 29.0526 72.291C30.1141 72.291 31.4825 72.6095 33.1813 73.1349C34.1333 73.4292 35.1307 73.7687 36.2005 74.1329C37.0539 74.4233 37.9533 74.7295 38.9124 75.0409C43.1535 76.4179 48.2033 77.7729 53.6209 77.5471C56.4525 77.4291 60.1577 76.0074 64.0278 74.0518C67.9317 72.079 72.1255 69.4982 75.9726 66.9426C79.8226 64.3851 83.3405 61.8428 85.895 59.9407C87.1727 58.9893 88.2102 58.1974 88.9289 57.6429C89.2883 57.3656 89.568 57.1477 89.7582 56.9988C89.8533 56.9243 89.926 56.8671 89.9752 56.8284L90.0304 56.7849Z" fill="#00BBFF"/>
    <path fill-rule="evenodd" clip-rule="evenodd" d="M29.0547 4.39058C29.0547 1.9712 31.016 0.00990295 33.4354 0.00990295H81.6229C84.0423 0.00990295 86.0036 1.9712 86.0036 4.39058V29.7985C86.0036 32.2179 84.0423 34.1792 81.6229 34.1792H33.4354C31.016 34.1792 29.0547 32.2179 29.0547 29.7985V4.39058ZM33.4354 1.76218C31.9837 1.76218 30.807 2.93895 30.807 4.39058V29.7985C30.807 31.2502 31.9837 32.4269 33.4354 32.4269H81.6229C83.0745 32.4269 84.2513 31.2502 84.2513 29.7985V4.39058C84.2513 2.93895 83.0745 1.76218 81.6229 1.76218H33.4354Z" fill="#00BBFF"/>
    <path fill-rule="evenodd" clip-rule="evenodd" d="M8.02344 7.89518C8.02344 7.4113 8.4157 7.01904 8.89957 7.01904H24.8891C25.3729 7.01904 25.7652 7.4113 25.7652 7.89518C25.7652 8.37906 25.3729 8.77132 24.8891 8.77132H8.89957C8.4157 8.77132 8.02344 8.37906 8.02344 7.89518ZM12.8422 14.9043C12.8422 14.4204 13.2344 14.0281 13.7183 14.0281H24.8891C25.3729 14.0281 25.7652 14.4204 25.7652 14.9043C25.7652 15.3881 25.3729 15.7804 24.8891 15.7804H13.7183C13.2344 15.7804 12.8422 15.3881 12.8422 14.9043ZM16.7848 21.4753C16.7848 20.9914 17.1771 20.5992 17.6609 20.5992H24.8891C25.3729 20.5992 25.7652 20.9914 25.7652 21.4753C25.7652 21.9592 25.3729 22.3514 24.8891 22.3514H17.6609C17.1771 22.3514 16.7848 21.9592 16.7848 21.4753ZM19.8513 27.6082C19.8513 27.1244 20.2435 26.7321 20.7274 26.7321H24.8891C25.3729 26.7321 25.7652 27.1244 25.7652 27.6082C25.7652 28.0921 25.3729 28.4844 24.8891 28.4844H20.7274C20.2435 28.4844 19.8513 28.0921 19.8513 27.6082Z" fill="#00BBFF"/>
</svg>