<svg width="110" height="110" viewBox="0 0 110 110" fill="none" xmlns="http://www.w3.org/2000/svg">
    <path d="M45.0203 52.2665C44.0923 52.2665 43.1841 52.1876 42.2956 52.0296C41.4072 51.8717 40.5779 51.6446 39.8079 51.3485C39.0577 51.0523 38.3765 50.6772 37.7645 50.2231C37.5276 50.0454 37.3597 49.8479 37.261 49.6308C37.182 49.3938 37.1623 49.1668 37.2018 48.9496C37.261 48.7127 37.3597 48.5153 37.4979 48.3573C37.6559 48.1994 37.8435 48.1105 38.0606 48.0908C38.2778 48.071 38.5147 48.1401 38.7714 48.2981C39.6599 48.9299 40.6076 49.3938 41.6145 49.69C42.6214 49.9664 43.7567 50.1046 45.0203 50.1046C46.7972 50.1046 48.1101 49.7788 48.9591 49.1273C49.8278 48.456 50.2622 47.5774 50.2622 46.4915C50.2622 45.6031 49.9463 44.9121 49.3145 44.4185C48.7024 43.9051 47.6659 43.5004 46.2049 43.2042L43.1249 42.5823C41.269 42.1874 39.877 41.5458 38.9491 40.6573C38.0409 39.7491 37.5868 38.5447 37.5868 37.0442C37.5868 36.1163 37.7744 35.2772 38.1495 34.5269C38.5246 33.7569 39.0478 33.1054 39.7191 32.5723C40.3904 32.0195 41.19 31.595 42.1179 31.2988C43.0459 31.0027 44.0726 30.8546 45.1979 30.8546C46.4418 30.8546 47.5968 31.0323 48.6629 31.3877C49.7488 31.7233 50.7262 32.2367 51.5949 32.9277C51.812 33.1054 51.9601 33.3127 52.0391 33.5496C52.1181 33.7668 52.1279 33.984 52.0687 34.2012C52.0095 34.3986 51.9009 34.5664 51.7429 34.7046C51.6047 34.8428 51.4172 34.9218 51.1803 34.9415C50.9631 34.9613 50.7163 34.8823 50.4399 34.7046C49.6501 34.1123 48.8308 33.6878 47.9818 33.4312C47.1328 33.1547 46.195 33.0165 45.1683 33.0165C44.1219 33.0165 43.2137 33.1745 42.4437 33.4904C41.6935 33.8063 41.1012 34.2703 40.6668 34.8823C40.2522 35.4746 40.0449 36.1656 40.0449 36.9554C40.0449 37.9031 40.3312 38.6533 40.9037 39.2062C41.496 39.759 42.4536 40.1637 43.7764 40.4204L46.8564 41.0719C48.8505 41.4865 50.3214 42.1183 51.2691 42.9673C52.2365 43.7965 52.7203 44.9318 52.7203 46.3731C52.7203 47.2418 52.5426 48.0414 52.1872 48.7719C51.8318 49.5024 51.3185 50.1342 50.6472 50.6673C49.9759 51.1806 49.1664 51.5755 48.2187 51.8519C47.271 52.1283 46.2049 52.2665 45.0203 52.2665Z" fill="#00BBFF"/>
    <path d="M45.4219 29.3846V53.9231" stroke="#00BBFF" stroke-width="1.69231" stroke-miterlimit="10" stroke-linecap="round" stroke-linejoin="round"/>
    <g filter="url(#filter0_d_0_1)">
        <circle cx="55" cy="48" r="35" fill="white"/>
    </g>
    <circle cx="55" cy="48" r="27" stroke="#00BBFF" stroke-width="2" stroke-miterlimit="10" stroke-linecap="round" stroke-linejoin="round"/>
    <path d="M55.0203 59.2665C54.0923 59.2665 53.1841 59.1876 52.2956 59.0296C51.4072 58.8717 50.5779 58.6446 49.8079 58.3485C49.0577 58.0523 48.3765 57.6772 47.7645 57.2231C47.5276 57.0454 47.3597 56.8479 47.261 56.6308C47.182 56.3938 47.1623 56.1668 47.2018 55.9496C47.261 55.7127 47.3597 55.5153 47.4979 55.3573C47.6559 55.1994 47.8435 55.1105 48.0606 55.0908C48.2778 55.071 48.5147 55.1401 48.7714 55.2981C49.6599 55.9299 50.6076 56.3938 51.6145 56.69C52.6214 56.9664 53.7567 57.1046 55.0203 57.1046C56.7972 57.1046 58.1101 56.7788 58.9591 56.1273C59.8278 55.456 60.2622 54.5774 60.2622 53.4915C60.2622 52.6031 59.9463 51.9121 59.3145 51.4185C58.7024 50.9051 57.6659 50.5004 56.2049 50.2042L53.1249 49.5823C51.269 49.1874 49.877 48.5458 48.9491 47.6573C48.0409 46.7491 47.5868 45.5447 47.5868 44.0442C47.5868 43.1163 47.7744 42.2772 48.1495 41.5269C48.5246 40.7569 49.0478 40.1054 49.7191 39.5723C50.3904 39.0195 51.19 38.595 52.1179 38.2988C53.0459 38.0027 54.0726 37.8546 55.1979 37.8546C56.4418 37.8546 57.5968 38.0323 58.6629 38.3877C59.7488 38.7233 60.7262 39.2367 61.5949 39.9277C61.812 40.1054 61.9601 40.3127 62.0391 40.5496C62.1181 40.7668 62.1279 40.984 62.0687 41.2012C62.0095 41.3986 61.9009 41.5664 61.7429 41.7046C61.6047 41.8428 61.4172 41.9218 61.1803 41.9415C60.9631 41.9613 60.7163 41.8823 60.4399 41.7046C59.6501 41.1123 58.8308 40.6878 57.9818 40.4312C57.1328 40.1547 56.195 40.0165 55.1683 40.0165C54.1219 40.0165 53.2137 40.1745 52.4437 40.4904C51.6935 40.8063 51.1012 41.2703 50.6668 41.8823C50.2522 42.4746 50.0449 43.1656 50.0449 43.9554C50.0449 44.9031 50.3312 45.6533 50.9037 46.2062C51.496 46.759 52.4536 47.1637 53.7764 47.4204L56.8564 48.0719C58.8505 48.4865 60.3214 49.1183 61.2691 49.9673C62.2365 50.7965 62.7203 51.9318 62.7203 53.3731C62.7203 54.2418 62.5426 55.0414 62.1872 55.7719C61.8318 56.5024 61.3185 57.1342 60.6472 57.6673C59.9759 58.1806 59.1664 58.5755 58.2187 58.8519C57.271 59.1283 56.2049 59.2665 55.0203 59.2665Z" fill="#00BBFF"/>
    <path d="M55.4219 36.3846V60.9231" stroke="#00BBFF" stroke-width="1.69231" stroke-miterlimit="10" stroke-linecap="round" stroke-linejoin="round"/>
    <defs>
        <filter id="filter0_d_0_1" x="0" y="0" width="110" height="110" filterUnits="userSpaceOnUse" color-interpolation-filters="sRGB">
            <feFlood flood-opacity="0" result="BackgroundImageFix"/>
            <feColorMatrix in="SourceAlpha" type="matrix" values="0 0 0 0 0 0 0 0 0 0 0 0 0 0 0 0 0 0 127 0" result="hardAlpha"/>
            <feOffset dy="7"/>
            <feGaussianBlur stdDeviation="10"/>
            <feColorMatrix type="matrix" values="0 0 0 0 0 0 0 0 0 0 0 0 0 0 0 0 0 0 0.15 0"/>
            <feBlend mode="normal" in2="BackgroundImageFix" result="effect1_dropShadow_0_1"/>
            <feBlend mode="normal" in="SourceGraphic" in2="effect1_dropShadow_0_1" result="shape"/>
        </filter>
    </defs>
</svg>