<svg width="110" height="110" viewBox="0 0 110 110" fill="none" xmlns="http://www.w3.org/2000/svg">
    <g filter="url(#filter0_d_0_1)">
        <circle cx="55" cy="48" r="35" fill="white"/>
    </g>
    <path d="M49.8846 58.0296C49.7464 58.2863 49.5786 58.4541 49.3812 58.5331C49.1837 58.6318 48.9863 58.6515 48.7888 58.5923C48.5914 58.5528 48.4236 58.4541 48.2854 58.2962C48.1472 58.1579 48.0583 57.9803 48.0188 57.7631C47.9991 57.5459 48.0583 57.309 48.1965 57.0523L59.6281 37.1508C59.7663 36.8941 59.9341 36.7263 60.1315 36.6473C60.329 36.5486 60.5264 36.5288 60.7238 36.5881C60.9213 36.6276 61.0891 36.7263 61.2273 36.8842C61.3655 37.0422 61.4445 37.2297 61.4642 37.4469C61.5037 37.6641 61.4544 37.8912 61.3162 38.1281L49.8846 58.0296ZM47.6931 49.6485C46.1136 49.6485 44.8796 49.0858 43.9912 47.9604C43.1027 46.835 42.6585 45.2654 42.6585 43.2515C42.6585 41.909 42.8559 40.7638 43.2508 39.8162C43.6654 38.8685 44.2478 38.1478 44.9981 37.6542C45.7483 37.1409 46.6467 36.8842 47.6931 36.8842C49.2528 36.8842 50.4769 37.4469 51.3654 38.5723C52.2736 39.6779 52.7277 41.2377 52.7277 43.2515C52.7277 44.5941 52.5204 45.7392 52.1058 46.6869C51.7109 47.6346 51.1383 48.3651 50.3881 48.8785C49.6378 49.3918 48.7395 49.6485 47.6931 49.6485ZM47.6931 47.9012C48.3051 47.9012 48.8283 47.7235 49.2627 47.3681C49.7168 47.0127 50.0623 46.4895 50.2992 45.7985C50.5362 45.1074 50.6546 44.2585 50.6546 43.2515C50.6546 41.7115 50.3881 40.5565 49.855 39.7865C49.3219 39.0165 48.6013 38.6315 47.6931 38.6315C47.081 38.6315 46.5479 38.8092 46.0938 39.1646C45.6595 39.5003 45.3238 40.0136 45.0869 40.7046C44.85 41.3759 44.7315 42.2249 44.7315 43.2515C44.7315 44.7915 44.9882 45.9564 45.5015 46.7462C46.0346 47.5162 46.7651 47.9012 47.6931 47.9012ZM61.8492 58.2665C60.2895 58.2665 59.0555 57.7038 58.1473 56.5785C57.2588 55.4531 56.8146 53.8835 56.8146 51.8696C56.8146 50.5271 57.0121 49.3819 57.4069 48.4342C57.8215 47.4865 58.404 46.7659 59.1542 46.2723C59.9242 45.759 60.8226 45.5023 61.8492 45.5023C63.4287 45.5023 64.6627 46.065 65.5512 47.1904C66.4396 48.296 66.8838 49.8558 66.8838 51.8696C66.8838 53.2122 66.6864 54.3672 66.2915 55.3346C65.8967 56.2823 65.3241 57.0128 64.5738 57.5262C63.8236 58.0197 62.9154 58.2665 61.8492 58.2665ZM61.8492 56.5192C62.481 56.5192 63.0141 56.3514 63.4485 56.0158C63.8828 55.6604 64.2185 55.1372 64.4554 54.4462C64.6923 53.7551 64.8108 52.8963 64.8108 51.8696C64.8108 50.3296 64.5442 49.1746 64.0112 48.4046C63.4978 47.6346 62.7772 47.2496 61.8492 47.2496C61.2372 47.2496 60.7041 47.4273 60.25 47.7827C59.8156 48.1183 59.48 48.6317 59.2431 49.3227C59.0259 49.994 58.9173 50.8429 58.9173 51.8696C58.9173 53.4294 59.174 54.5942 59.6873 55.3642C60.2204 56.1342 60.941 56.5192 61.8492 56.5192Z" fill="#00BBFF"/>
    <circle cx="55" cy="48" r="27" stroke="#00BBFF" stroke-width="2" stroke-miterlimit="10" stroke-linecap="round" stroke-linejoin="round"/>
    <defs>
        <filter id="filter0_d_0_1" x="0" y="0" width="110" height="110" filterUnits="userSpaceOnUse" color-interpolation-filters="sRGB">
            <feFlood flood-opacity="0" result="BackgroundImageFix"/>
            <feColorMatrix in="SourceAlpha" type="matrix" values="0 0 0 0 0 0 0 0 0 0 0 0 0 0 0 0 0 0 127 0" result="hardAlpha"/>
            <feOffset dy="7"/>
            <feGaussianBlur stdDeviation="10"/>
            <feColorMatrix type="matrix" values="0 0 0 0 0 0 0 0 0 0 0 0 0 0 0 0 0 0 0.15 0"/>
            <feBlend mode="normal" in2="BackgroundImageFix" result="effect1_dropShadow_0_1"/>
            <feBlend mode="normal" in="SourceGraphic" in2="effect1_dropShadow_0_1" result="shape"/>
        </filter>
    </defs>
</svg>
