<svg width="59" height="42" viewBox="0 0 59 42" fill="none" xmlns="http://www.w3.org/2000/svg">
    <path d="M38.4337 9.47776L38.5627 9.36552L38.596 9.19779L40.2019 1.09723L40.3203 0.5H39.7115H10.8049H10.3952L10.3146 0.901718L8.32107 10.8459L8.20113 11.4441H8.81132H21.2062L15.461 16.4325L15.3316 16.5448L15.2983 16.7128L13.6924 24.8134L13.574 25.4106H14.1828H19.5544C20.8124 25.4106 21.6723 25.6039 22.2027 25.925C22.6927 26.2215 22.9307 26.6422 22.9307 27.257C22.9307 28.1525 22.5503 28.833 21.7333 29.3424C20.8836 29.8347 19.6038 30.1089 17.8377 30.1089C16.2255 30.1089 14.5725 29.8741 12.8774 29.4011C11.1875 28.9295 9.62636 28.2413 8.19197 27.3368L7.77387 27.0732L7.50545 27.4883L1.58015 36.6503L1.31685 37.0574L1.71569 37.3331C3.76099 38.7469 6.08548 39.7941 8.68406 40.478L8.68577 40.4784C11.3136 41.1601 14.0694 41.5 16.9517 41.5C20.7013 41.5 24.1099 40.8567 27.1698 39.561C30.2267 38.2665 32.6454 36.4672 34.4041 34.1539C36.2044 31.8346 37.1104 29.2326 37.1104 26.3631C37.1104 23.9895 36.4328 21.9061 35.0682 20.1361C33.8642 18.5744 32.2415 17.4068 30.2206 16.6242L38.4337 9.47776ZM44.8529 39.1732L44.8581 39.1785L44.8634 39.1835C46.2615 40.5134 48.0523 41.1648 50.1919 41.1648C52.4897 41.1648 54.4597 40.4138 56.071 38.9071L56.0711 38.9072L56.0758 38.9027C57.6981 37.3459 58.5 35.3296 58.5 32.8994C58.5 30.8093 57.8305 29.0728 56.467 27.7377C55.1037 26.4029 53.3279 25.7514 51.1887 25.7514C48.8537 25.7514 46.8637 26.5214 45.2518 28.0672C43.6265 29.588 42.8252 31.5879 42.8252 34.0168C42.8252 36.0728 43.4964 37.8048 44.8529 39.1732Z" stroke="#00BBFF"/>
</svg>