<svg width="59" height="67" viewBox="0 0 59 67" fill="none" xmlns="http://www.w3.org/2000/svg">
    <path d="M52.0173 66.6031H45.8399C45.4849 66.6031 45.1298 66.3901 44.9878 66.0351L43.1416 61.7037C40.5855 62.2008 32.4198 63.5499 26.1003 61.2777L22.9051 66.2481C22.7631 66.5321 22.4791 66.6741 22.1241 66.6741H16.8696C16.3726 66.6741 15.9466 66.2481 15.9466 65.7511L15.7336 57.1594C13.7454 55.5973 3.94667 48.0707 1.88751 46.0115C-0.668684 43.4553 0.112376 37.7749 0.112376 37.4909C0.183381 37.0648 0.5384 36.7098 1.03544 36.7098H4.65674C4.72775 36.7098 4.72771 36.7098 4.79872 36.7098C4.79872 36.7098 6.78689 36.7808 9.34308 32.7335C10.1951 31.3134 10.5502 30.1063 10.2661 29.1122C9.98212 27.9052 8.91707 27.3371 8.91707 27.3371C8.56204 27.1241 8.349 26.6981 8.49101 26.272C8.49101 26.13 9.20108 23.6448 12.6803 23.6448C15.8756 23.6448 20.1359 29.5383 20.988 30.6744C21.272 31.1004 21.201 31.6684 20.7749 31.9525C20.3489 32.2365 19.7809 32.1655 19.4968 31.7395C17.6507 29.1123 14.3135 25.491 12.6803 25.491C11.4733 25.491 10.8342 25.917 10.5502 26.201C11.0472 26.6981 11.7573 27.4791 12.0413 28.6152C12.4673 30.1773 12.0413 31.8815 10.9052 33.7276C7.85198 38.485 5.22478 38.627 4.65674 38.556H1.88751C1.7455 40.3311 1.8875 43.3843 3.1656 44.6624C5.36677 46.8636 17.0117 55.8813 17.1537 55.9523C17.3667 56.0943 17.5087 56.3783 17.5087 56.6623L17.7217 64.757H21.556L24.8933 59.5736C25.1063 59.2185 25.6033 59.0765 26.0294 59.2185C32.9169 62.0588 43.3547 59.7156 43.4257 59.7156C43.8517 59.6446 44.2778 59.8576 44.4908 60.2836L46.4079 64.757H51.0943V55.8103C51.0943 55.5263 51.1653 55.3133 51.3783 55.1712C51.8043 54.7452 61.106 45.5145 54.6445 34.2246C45.8399 18.7455 23.8282 28.3312 23.6152 28.4022C23.1181 28.6152 22.6211 28.4022 22.4081 27.9051C22.1951 27.4081 22.4081 26.9111 22.9051 26.6981C23.1181 26.6271 46.6209 16.4023 56.2777 33.3016C62.8102 44.6624 54.6445 54.4612 53.0114 56.2363V65.68C52.9404 66.1771 52.5144 66.6031 52.0173 66.6031Z" fill="#00BBFF"/>
    <path d="M37.2479 21.7277C31.2835 21.7277 26.4551 16.8993 26.4551 10.8638C26.4551 4.89937 31.2835 0 37.2479 0C43.2124 0 48.0407 4.82836 48.0407 10.8638C48.0407 16.8993 43.2124 21.7277 37.2479 21.7277ZM37.2479 1.91716C32.3485 1.91716 28.3012 5.96445 28.3012 10.9348C28.3012 15.9052 32.2775 19.9525 37.2479 19.9525C42.1473 19.9525 46.1946 15.9052 46.1946 10.9348C46.1946 5.96445 42.2183 1.91716 37.2479 1.91716Z" fill="black"/>
    <path d="M38.1003 15.6212H36.4672C34.9051 15.6212 33.627 14.3431 33.627 12.781C33.627 12.2839 34.053 11.8579 34.55 11.8579C35.0471 11.8579 35.4731 12.2839 35.4731 12.781C35.4731 13.349 35.8991 13.775 36.4672 13.775H38.1003C38.6683 13.775 39.0944 13.349 39.0944 12.781C39.0944 12.2129 38.6683 11.7869 38.1003 11.7869H36.4672C34.9051 11.7869 33.627 10.5088 33.627 8.94666C33.627 7.38454 34.9051 6.10645 36.4672 6.10645H38.1003C39.6624 6.10645 40.9405 7.38454 40.9405 8.94666C40.9405 9.4437 40.5145 9.86972 40.0174 9.86972C39.5204 9.86972 39.0944 9.4437 39.0944 8.94666C39.0944 8.37862 38.6683 7.95259 38.1003 7.95259H36.4672C35.8991 7.95259 35.4731 8.37862 35.4731 8.94666C35.4731 9.51471 35.8991 9.94073 36.4672 9.94073H38.1003C39.6624 9.94073 40.9405 11.2188 40.9405 12.781C40.8695 14.4141 39.5914 15.6212 38.1003 15.6212Z" fill="black"/>
    <path d="M37.2473 8.0236C36.7502 8.0236 36.3242 7.59758 36.3242 7.10054V5.32541C36.3242 4.82837 36.7502 4.40234 37.2473 4.40234C37.7443 4.40234 38.1703 4.82837 38.1703 5.32541V7.10054C38.1703 7.59758 37.7443 8.0236 37.2473 8.0236Z" fill="black"/>
    <path d="M37.2473 17.3967C36.7502 17.3967 36.3242 16.9706 36.3242 16.4736V14.6985C36.3242 14.2014 36.7502 13.7754 37.2473 13.7754C37.7443 13.7754 38.1703 14.2014 38.1703 14.6985V16.4736C38.1703 17.0417 37.7443 17.3967 37.2473 17.3967Z" fill="black"/>
    <path d="M45.627 32.237C45.485 32.237 45.414 32.237 45.272 32.166C37.5324 29.1128 30.6449 32.095 30.5739 32.166C30.0768 32.379 29.5798 32.166 29.3668 31.669C29.1538 31.1719 29.3668 30.6749 29.7928 30.4619C30.0768 30.3199 37.4614 27.0536 45.911 30.4619C46.4081 30.6749 46.6211 31.1719 46.4081 31.669C46.3371 32.024 45.982 32.237 45.627 32.237Z" fill="#00BBFF"/>
</svg>
