<svg width="74" height="83" viewBox="0 0 74 83" fill="none" xmlns="http://www.w3.org/2000/svg">
    <path d="M64.8405 82.4373H57.2181C56.78 82.4373 56.342 82.1745 56.1667 81.7364L53.8888 76.392C50.7347 77.0053 40.6591 78.6699 32.8615 75.8663L28.9189 81.9993C28.7436 82.3497 28.3932 82.5249 27.9551 82.5249H21.4717C20.8584 82.5249 20.3327 81.9993 20.3327 81.386L20.0699 70.7847C17.6167 68.8572 5.52605 59.5702 2.98525 57.0294C-0.168839 53.8753 0.794911 46.8662 0.794911 46.5157C0.882524 45.9901 1.32058 45.552 1.93388 45.552H6.4022C6.48982 45.552 6.48978 45.552 6.57739 45.552C6.57739 45.552 9.03059 45.6396 12.1847 40.6456C13.236 38.8934 13.6741 37.4039 13.3237 36.1773C12.9732 34.6879 11.659 33.987 11.659 33.987C11.221 33.7242 10.9581 33.1985 11.1333 32.6728C11.1333 32.4976 12.0095 29.4311 16.3025 29.4311C20.2451 29.4311 25.502 36.703 26.5533 38.1048C26.9038 38.6305 26.8161 39.3314 26.2905 39.6819C25.7648 40.0323 25.0639 39.9447 24.7134 39.4191C22.4355 36.1774 18.3176 31.709 16.3025 31.709C14.8131 31.709 14.0246 32.2347 13.6741 32.5852C14.2874 33.1985 15.1635 34.1622 15.514 35.564C16.0397 37.4915 15.514 39.5943 14.1122 41.8722C10.3448 47.7423 7.10311 47.9176 6.4022 47.8299H2.98525C2.81002 50.0203 2.98524 53.7877 4.56229 55.3647C7.27831 58.0807 21.647 69.2077 21.8222 69.2953C22.085 69.4705 22.2603 69.821 22.2603 70.1714L22.5231 80.1594H27.2542L31.3721 73.7636C31.6349 73.3255 32.2482 73.1503 32.7739 73.3255C41.2724 76.8301 54.1516 73.9388 54.2392 73.9388C54.7649 73.8512 55.2906 74.114 55.5534 74.6397L57.919 80.1594H63.7015V69.1201C63.7015 68.7696 63.7891 68.5068 64.052 68.3316C64.5776 67.8059 76.055 56.4161 68.0822 42.4855C57.2181 23.3858 30.0578 35.2136 29.795 35.3012C29.1817 35.564 28.5685 35.3012 28.3056 34.6879C28.0428 34.0746 28.3056 33.4613 28.9189 33.1985C29.1817 33.1109 58.1818 20.4945 70.0973 41.3465C78.1577 55.3647 68.0822 67.4554 66.0671 69.6458V81.2984C65.9795 81.9117 65.4538 82.4373 64.8405 82.4373Z" fill="#00BBFF"/>
    <path d="M46.6181 27.0656C39.2585 27.0656 33.3008 21.1079 33.3008 13.6607C33.3008 6.30119 39.2585 0.255859 46.6181 0.255859C53.9776 0.255859 59.9353 6.21358 59.9353 13.6607C59.9353 21.1079 53.9776 27.0656 46.6181 27.0656ZM46.6181 2.62144C40.5727 2.62144 35.5788 7.6154 35.5788 13.7484C35.5788 19.8813 40.4851 24.8753 46.6181 24.8753C52.6634 24.8753 57.6574 19.8813 57.6574 13.7484C57.6574 7.6154 52.751 2.62144 46.6181 2.62144Z" fill="#00BBFF"/>
    <path d="M47.6681 19.5307H45.653C43.7255 19.5307 42.1484 17.9537 42.1484 16.0262C42.1484 15.4129 42.6741 14.8872 43.2874 14.8872C43.9007 14.8872 44.4264 15.4129 44.4264 16.0262C44.4264 16.7271 44.9521 17.2528 45.653 17.2528H47.6681C48.369 17.2528 48.8947 16.7271 48.8947 16.0262C48.8947 15.3253 48.369 14.7996 47.6681 14.7996H45.653C43.7255 14.7996 42.1484 13.2226 42.1484 11.2951C42.1484 9.36757 43.7255 7.79053 45.653 7.79053H47.6681C49.5956 7.79053 51.1726 9.36757 51.1726 11.2951C51.1726 11.9084 50.647 12.434 50.0337 12.434C49.4204 12.434 48.8947 11.9084 48.8947 11.2951C48.8947 10.5942 48.369 10.0685 47.6681 10.0685H45.653C44.9521 10.0685 44.4264 10.5942 44.4264 11.2951C44.4264 11.996 44.9521 12.5217 45.653 12.5217H47.6681C49.5956 12.5217 51.1726 14.0987 51.1726 16.0262C51.085 18.0413 49.508 19.5307 47.6681 19.5307Z" fill="#00BBFF"/>
    <path d="M46.6155 10.1563C46.0022 10.1563 45.4766 9.63059 45.4766 9.0173V6.82695C45.4766 6.21366 46.0022 5.68799 46.6155 5.68799C47.2288 5.68799 47.7545 6.21366 47.7545 6.82695V9.0173C47.7545 9.63059 47.2288 10.1563 46.6155 10.1563Z" fill="#00BBFF"/>
    <path d="M46.6155 21.7207C46.0022 21.7207 45.4766 21.1951 45.4766 20.5818V18.3914C45.4766 17.7781 46.0022 17.2524 46.6155 17.2524C47.2288 17.2524 47.7545 17.7781 47.7545 18.3914V20.5818C47.7545 21.2827 47.2288 21.7207 46.6155 21.7207Z" fill="#00BBFF"/>
    <path d="M56.9557 40.0326C56.7804 40.0326 56.6928 40.0326 56.5176 39.945C46.9677 36.1776 38.4692 39.8573 38.3816 39.945C37.7683 40.2078 37.155 39.945 36.8922 39.3317C36.6293 38.7184 36.8922 38.1051 37.4178 37.8422C37.7683 37.667 46.8801 33.6368 57.3061 37.8422C57.9194 38.1051 58.1823 38.7184 57.9195 39.3317C57.8318 39.7697 57.3937 40.0326 56.9557 40.0326Z" fill="#00BBFF"/>
</svg>