<svg width="66" height="84" viewBox="0 0 66 84" fill="none" xmlns="http://www.w3.org/2000/svg">
    <path fill-rule="evenodd" clip-rule="evenodd" d="M49.8543 45.2774C49.8543 44.8679 49.5224 44.536 49.1129 44.536C48.7035 44.536 48.3716 44.8679 48.3716 45.2774V46.7995C47.597 46.839 46.8795 46.9642 46.2191 47.175C45.406 47.4345 44.7055 47.8064 44.1173 48.2907C43.5292 48.7578 43.0708 49.3286 42.7421 50.0032C42.4135 50.6606 42.2491 51.3957 42.2491 52.2087C42.2491 53.5234 42.647 54.5786 43.4427 55.3743C44.2557 56.1527 45.4752 56.7149 47.1013 57.0608L48.3716 57.3174V63.6463C47.4198 63.6209 46.5552 63.5015 45.7779 63.2881C44.8957 63.0287 44.0654 62.6222 43.287 62.0686C43.0622 61.9303 42.8546 61.8697 42.6643 61.887C42.474 61.9043 42.3097 61.9821 42.1713 62.1205C42.0502 62.2589 41.9637 62.4319 41.9118 62.6395C41.8772 62.8298 41.8945 63.0287 41.9637 63.2363C42.0502 63.4265 42.1972 63.5995 42.4048 63.7552C42.9411 64.1531 43.5378 64.4817 44.1952 64.7412C44.8698 65.0007 45.5963 65.1996 46.3747 65.338C47.0282 65.4541 47.6938 65.5215 48.3716 65.5402V66.7764C48.3716 67.1858 48.7035 67.5177 49.1129 67.5177C49.5224 67.5177 49.8543 67.1858 49.8543 66.7764V65.4974C50.4662 65.4413 51.0362 65.3363 51.5642 65.1823C52.3945 64.9401 53.1037 64.5942 53.6918 64.1444C54.28 63.6774 54.7297 63.1238 55.0411 62.4838C55.3524 61.8438 55.5081 61.1432 55.5081 60.3821C55.5081 59.1193 55.0843 58.1247 54.2367 57.3982C53.4064 56.6543 52.1177 56.1008 50.3706 55.7375L49.8543 55.6283V48.7293C50.3861 48.7856 50.8869 48.8903 51.3566 49.0432C52.1004 49.2681 52.8183 49.64 53.5102 50.1589C53.7524 50.3146 53.9686 50.3838 54.1589 50.3665C54.3664 50.3492 54.5308 50.28 54.6519 50.1589C54.7902 50.0378 54.8854 49.8908 54.9373 49.7178C54.9892 49.5275 54.9805 49.3373 54.9113 49.147C54.8421 48.9394 54.7124 48.7578 54.5221 48.6021C53.761 47.9966 52.9048 47.5469 51.9534 47.2528C51.2926 47.0326 50.5929 46.8902 49.8543 46.8258V45.2774ZM48.3716 48.6956C47.6706 48.7388 47.0482 48.872 46.5045 49.0951C45.8471 49.3718 45.3282 49.7784 44.9476 50.3146C44.5844 50.8335 44.4028 51.439 44.4028 52.1309C44.4028 52.9612 44.6536 53.6185 45.1552 54.1029C45.6742 54.5872 46.5131 54.9418 47.6721 55.1667L48.3716 55.3147V48.6956ZM49.8543 57.6169V63.5978C50.869 63.4907 51.6552 63.2231 52.2128 62.7952C52.9739 62.207 53.3545 61.4373 53.3545 60.4859C53.3545 59.7074 53.0777 59.102 52.5242 58.6696C51.9956 58.2262 51.1056 57.8753 49.8543 57.6169Z" fill="#00BBFF"/>
    <path fill-rule="evenodd" clip-rule="evenodd" d="M0.285156 2.0096C0.285156 1.04184 1.06968 0.257324 2.03743 0.257324H64.2431C65.2109 0.257324 65.9954 1.04184 65.9954 2.0096V81.738C65.9954 82.7058 65.2109 83.4903 64.2431 83.4903H64.2053C63.7367 83.4903 63.2876 83.3026 62.9583 82.969L58.1508 78.0992L53.3432 82.969C53.014 83.3026 52.5649 83.4903 52.0963 83.4903H51.6999C51.2312 83.4903 50.7821 83.3026 50.4529 82.969L45.6453 78.0992L40.8378 82.969C40.5085 83.3026 40.0594 83.4903 39.5908 83.4903H39.1952C38.7266 83.4903 38.2775 83.3026 37.9482 82.969L33.1407 78.0992L28.3331 82.969C28.0039 83.3026 27.5548 83.4903 27.0862 83.4903H26.6898C26.2211 83.4903 25.772 83.3026 25.4428 82.969L20.6352 78.0992L15.8277 82.969C15.4984 83.3026 15.0493 83.4903 14.5807 83.4903H14.1843C13.7156 83.4903 13.2665 83.3026 12.9373 82.969L8.12974 78.0992L3.32219 82.969C2.99295 83.3026 2.54384 83.4903 2.0752 83.4903H2.03743C1.06968 83.4903 0.285156 82.7058 0.285156 81.738V2.0096ZM8.12974 75.605L14.1843 81.738H14.5807L20.6352 75.605L26.6898 81.738H27.0862L33.1407 75.605L39.1952 81.738H39.5908L45.6453 75.605L51.6999 81.738H52.0963L58.1508 75.605L64.2053 81.738H64.2431V2.0096H2.03743V81.738H2.0752L8.12974 75.605Z" fill="#00BBFF"/>
    <path fill-rule="evenodd" clip-rule="evenodd" d="M8.17188 13.3991C8.17188 12.9152 8.56413 12.5229 9.04801 12.5229H56.7974C57.2813 12.5229 57.6736 12.9152 57.6736 13.3991C57.6736 13.883 57.2813 14.2752 56.7974 14.2752H9.04801C8.56413 14.2752 8.17188 13.883 8.17188 13.3991Z" fill="#00BBFF"/>
    <path fill-rule="evenodd" clip-rule="evenodd" d="M8.17188 20.4084C8.17188 19.9245 8.56413 19.5322 9.04801 19.5322H56.7974C57.2813 19.5322 57.6736 19.9245 57.6736 20.4084C57.6736 20.8922 57.2813 21.2845 56.7974 21.2845H9.04801C8.56413 21.2845 8.17188 20.8922 8.17188 20.4084Z" fill="#00BBFF"/>
    <path fill-rule="evenodd" clip-rule="evenodd" d="M8.17188 27.4172C8.17188 26.9333 8.56413 26.541 9.04801 26.541H56.7974C57.2813 26.541 57.6736 26.9333 57.6736 27.4172C57.6736 27.901 57.2813 28.2933 56.7974 28.2933H9.04801C8.56413 28.2933 8.17188 27.901 8.17188 27.4172Z" fill="#00BBFF"/>
    <path fill-rule="evenodd" clip-rule="evenodd" d="M8.17188 34.4264C8.17188 33.9426 8.56413 33.5503 9.04801 33.5503H56.7974C57.2813 33.5503 57.6736 33.9426 57.6736 34.4264C57.6736 34.9103 57.2813 35.3026 56.7974 35.3026H9.04801C8.56413 35.3026 8.17188 34.9103 8.17188 34.4264Z" fill="#00BBFF"/>
    <path fill-rule="evenodd" clip-rule="evenodd" d="M8.17188 50.1969C8.17188 49.7131 8.56413 49.3208 9.04801 49.3208H27.4469C27.9308 49.3208 28.323 49.7131 28.323 50.1969C28.323 50.6808 27.9308 51.0731 27.4469 51.0731H9.04801C8.56413 51.0731 8.17188 50.6808 8.17188 50.1969Z" fill="#00BBFF"/>
</svg>