<svg width="57" height="71" viewBox="0 0 57 71" fill="none" xmlns="http://www.w3.org/2000/svg">
    <mask id="path-1-inside-1_29_720" fill="white">
        <path d="M0 5.14551H40.7347V22.21C40.7347 33.4586 31.6159 42.5774 20.3673 42.5774C9.11877 42.5774 0 33.4586 0 22.21V5.14551Z"/>
    </mask>
    <path d="M0 5.14551H40.7347H0ZM43.7347 22.21C43.7347 35.1155 33.2728 45.5774 20.3673 45.5774C7.46191 45.5774 -3 35.1155 -3 22.21H3C3 31.8017 10.7756 39.5774 20.3673 39.5774C29.959 39.5774 37.7347 31.8017 37.7347 22.21H43.7347ZM20.3673 45.5774C7.46191 45.5774 -3 35.1155 -3 22.21V5.14551H3V22.21C3 31.8017 10.7756 39.5774 20.3673 39.5774V45.5774ZM43.7347 5.14551V22.21C43.7347 35.1155 33.2728 45.5774 20.3673 45.5774V39.5774C29.959 39.5774 37.7347 31.8017 37.7347 22.21V5.14551H43.7347Z" fill="#00BBFF" mask="url(#path-1-inside-1_29_720)"/>
    <path d="M19.8169 40.9263V54.1376C19.8169 62.346 26.4711 69.0002 34.6795 69.0002V69.0002C42.888 69.0002 49.5422 62.346 49.5422 54.1376V31.5684" stroke="#00BBFF" stroke-width="3"/>
    <circle cx="49.5426" cy="26.0635" r="5.10562" stroke="#00BBFF" stroke-width="3"/>
    <path d="M38.9948 6.67742C38.9948 9.80452 36.9306 11.8548 34.9302 11.8548C32.9299 11.8548 30.8657 9.80452 30.8657 6.67742C30.8657 3.55032 32.9299 1.5 34.9302 1.5C36.9306 1.5 38.9948 3.55032 38.9948 6.67742Z" stroke="#00BBFF" stroke-width="3"/>
    <path d="M10.0595 6.67742C10.0595 9.80452 7.99525 11.8548 5.99494 11.8548C3.99462 11.8548 1.93042 9.80452 1.93042 6.67742C1.93042 3.55032 3.99462 1.5 5.99494 1.5C7.99525 1.5 10.0595 3.55032 10.0595 6.67742Z" stroke="#00BBFF" stroke-width="3"/>
</svg>
