<svg width="55" height="54" viewBox="0 0 55 54" fill="none" xmlns="http://www.w3.org/2000/svg">
    <path d="M36.7044 37.9784C31.7612 42.3805 26.0847 44.312 21.2441 44.6819C18.8224 44.867 16.6294 44.6597 14.8591 44.1893C13.0674 43.7132 11.7998 42.9932 11.1204 42.2303C10.433 41.4585 9.84658 40.1248 9.55648 38.3177C9.26942 36.5295 9.28655 34.3581 9.72878 31.9968C10.6123 27.2794 13.1812 21.8633 18.2963 17.308C23.371 12.7887 29.5194 11.1417 34.6659 10.8994C37.2375 10.7783 39.5342 11.0096 41.2867 11.3951C42.1638 11.588 42.8878 11.8158 43.4335 12.0479C44.0067 12.2917 44.2893 12.5011 44.384 12.6074C44.4722 12.7064 44.6434 13.0071 44.8121 13.6137C44.9721 14.1892 45.1042 14.9449 45.1822 15.8512C45.3381 17.6616 45.2724 20.0006 44.8343 22.5633C43.9568 27.6965 41.6076 33.6118 36.7044 37.9784Z" stroke="#00BBFF" stroke-width="2" stroke-linecap="round"/>
    <path d="M36.1166 16.3535C23.757 16.3535 15.1341 24.3211 13.9844 36.2725" stroke="black" stroke-width="2" stroke-linecap="round"/>
</svg>