<svg width="43" height="42" viewBox="0 0 43 42" fill="none" xmlns="http://www.w3.org/2000/svg">
    <path d="M24.3603 1.09714L24.4786 0.5H23.8699H4.00846H3.59867L3.51819 0.901809L1.50974 10.93L1.38993 11.5282H2H8.08657L2.4021 40.3398L2.28436 40.9366H2.89265H16.0592H16.4699L16.5497 40.5338L24.3603 1.09714ZM28.7571 39.4927L28.7623 39.4979L28.7676 39.503C30.1754 40.8433 31.9787 41.5 34.1335 41.5C36.4478 41.5 38.4316 40.7429 40.0543 39.2242L40.0543 39.2242L40.059 39.2197C41.6925 37.6506 42.5 35.6185 42.5 33.169C42.5 31.0623 41.826 29.3124 40.4531 27.9669C39.0805 26.6215 37.2924 25.9648 35.1378 25.9648C32.7861 25.9648 30.7821 26.7411 29.1589 28.2991C27.5224 29.832 26.7155 31.8476 26.7155 34.2958C26.7155 36.368 27.3913 38.1135 28.7571 39.4927Z" stroke="#00BBFF"/>
</svg>