<svg width="110" height="110" viewBox="0 0 110 110" fill="none" xmlns="http://www.w3.org/2000/svg">
    <g filter="url(#filter0_d_0_1)">
        <circle cx="55" cy="48" r="35" fill="white"/>
    </g>
    <path d="M55.7071 71.7071C56.0976 71.3166 56.0976 70.6834 55.7071 70.2929L49.3431 63.9289C48.9526 63.5384 48.3195 63.5384 47.9289 63.9289C47.5384 64.3195 47.5384 64.9526 47.9289 65.3431L53.5858 71L47.9289 76.6569C47.5384 77.0474 47.5384 77.6805 47.9289 78.0711C48.3195 78.4616 48.9526 78.4616 49.3431 78.0711L55.7071 71.7071ZM43.1686 25.8732C43.6508 25.604 43.8236 24.9949 43.5544 24.5126C43.2852 24.0304 42.6761 23.8576 42.1938 24.1268L43.1686 25.8732ZM55 70C41.7297 70 31 59.4212 31 46.4059H29C29 60.5565 40.6561 72 55 72V70ZM31 46.4059C31 37.6119 35.8948 29.9331 43.1686 25.8732L42.1938 24.1268C34.323 28.5199 29 36.8467 29 46.4059H31Z" fill="#00BBFF"/>
    <path d="M54.2929 23.2929C53.9024 23.6834 53.9024 24.3166 54.2929 24.7071L60.6569 31.0711C61.0474 31.4616 61.6805 31.4616 62.0711 31.0711C62.4616 30.6805 62.4616 30.0474 62.0711 29.6569L56.4142 24L62.0711 18.3431C62.4616 17.9526 62.4616 17.3195 62.0711 16.9289C61.6805 16.5384 61.0474 16.5384 60.6569 16.9289L54.2929 23.2929ZM66.3234 69.1355C65.846 69.4131 65.6839 70.0252 65.9615 70.5026C66.2391 70.9801 66.8512 71.1421 67.3287 70.8645L66.3234 69.1355ZM55 25C67.6796 25 78 35.5402 78 48.5941L80 48.5941C80 34.482 68.83 23 55 23L55 25ZM78 48.5941C78 57.4083 73.2903 65.0849 66.3234 69.1355L67.3287 70.8645C74.9006 66.4621 80 58.1331 80 48.5941L78 48.5941Z" fill="#00BBFF"/>
    <path fill-rule="evenodd" clip-rule="evenodd" d="M55.4541 37.3244C55.4541 36.9149 55.1222 36.583 54.7128 36.583C54.3033 36.583 53.9714 36.9149 53.9714 37.3244V39.2085C53.5035 39.2733 53.0589 39.3729 52.6375 39.5074C51.8245 39.7669 51.1239 40.1388 50.5358 40.6231C49.9477 41.0902 49.4893 41.661 49.1606 42.3356C48.8319 42.993 48.6676 43.7281 48.6676 44.5412C48.6676 45.8558 49.0655 46.911 49.8612 47.7067C50.6742 48.4851 51.8937 49.0473 53.5197 49.3933L53.9714 49.4845V55.9318C53.3363 55.8748 52.7447 55.7711 52.1964 55.6206C51.3142 55.3611 50.4839 54.9546 49.7055 54.4011C49.4806 54.2627 49.273 54.2021 49.0828 54.2194C48.8925 54.2367 48.7281 54.3146 48.5898 54.453C48.4687 54.5913 48.3822 54.7643 48.3303 54.9719C48.2957 55.1622 48.313 55.3611 48.3822 55.5687C48.4687 55.759 48.6157 55.9319 48.8233 56.0876C49.3595 56.4855 49.9563 56.8141 50.6136 57.0736C51.2883 57.3331 52.0148 57.532 52.7932 57.6704C53.5716 57.8088 54.3673 57.878 55.1803 57.878C56.2182 57.878 57.1523 57.7569 57.9826 57.5147C58.8129 57.2725 59.5221 56.9266 60.1103 56.4768C60.6984 56.0098 61.1482 55.4562 61.4595 54.8162C61.7709 54.1762 61.9266 53.4756 61.9266 52.7145C61.9266 51.4517 61.5028 50.4571 60.6552 49.7306C59.8249 48.9868 58.5362 48.4332 56.789 48.07L55.4541 47.7876V41.0134C56.2975 41.0257 57.0711 41.1464 57.775 41.3756C58.5189 41.6005 59.2367 41.9724 59.9286 42.4913C60.1708 42.647 60.387 42.7162 60.5773 42.6989C60.7849 42.6816 60.9492 42.6124 61.0703 42.4913C61.2087 42.3702 61.3038 42.2232 61.3557 42.0502C61.4076 41.86 61.399 41.6697 61.3298 41.4794C61.2606 41.2718 61.1309 41.0902 60.9406 40.9345C60.1795 40.3291 59.3232 39.8793 58.3718 39.5853C57.4716 39.2852 56.499 39.1297 55.4541 39.1188V37.3244ZM53.9714 41.1258C53.5944 41.1949 53.2449 41.2954 52.9229 41.4275C52.2656 41.7043 51.7467 42.1108 51.3661 42.647C51.0028 43.166 50.8212 43.7714 50.8212 44.4633C50.8212 45.2936 51.072 45.9509 51.5737 46.4353C52.0747 46.9029 52.8739 47.2496 53.9714 47.4753V41.1258ZM55.4541 49.7839V55.9808C56.8727 55.9488 57.9318 55.6644 58.6313 55.1276C59.3924 54.5394 59.773 53.7697 59.773 52.8183C59.773 52.0399 59.4962 51.4344 58.9427 51.002C58.4064 50.5522 57.4983 50.1976 56.2182 49.9382L55.4541 49.7839Z" fill="#00BBFF"/>
    <circle cx="54.5148" cy="46.5959" r="14.3654" stroke="#00BBFF" stroke-width="2"/>
    <defs>
        <filter id="filter0_d_0_1" x="0" y="0" width="110" height="110" filterUnits="userSpaceOnUse" color-interpolation-filters="sRGB">
            <feFlood flood-opacity="0" result="BackgroundImageFix"/>
            <feColorMatrix in="SourceAlpha" type="matrix" values="0 0 0 0 0 0 0 0 0 0 0 0 0 0 0 0 0 0 127 0" result="hardAlpha"/>
            <feOffset dy="7"/>
            <feGaussianBlur stdDeviation="10"/>
            <feColorMatrix type="matrix" values="0 0 0 0 0 0 0 0 0 0 0 0 0 0 0 0 0 0 0.15 0"/>
            <feBlend mode="normal" in2="BackgroundImageFix" result="effect1_dropShadow_0_1"/>
            <feBlend mode="normal" in="SourceGraphic" in2="effect1_dropShadow_0_1" result="shape"/>
        </filter>
    </defs>
</svg>
