<svg width="110" height="110" viewBox="0 0 110 110" fill="none" xmlns="http://www.w3.org/2000/svg">
    <g filter="url(#filter0_d_0_1)">
        <circle cx="55" cy="48" r="35" fill="white"/>
    </g>
    <path d="M61.3924 70.0175L62.0995 69.3103L61.3924 70.0175ZM40.9282 34.6208L40.2211 33.9137L40.9282 34.6208ZM68.5501 51.1756L68.609 52.1739L68.5501 51.1756ZM63.2064 49.5662L62.4993 50.2733L63.2064 49.5662ZM79.903 59.4369L78.9346 59.6865L79.903 59.4369ZM41.6198 33.9291L42.3269 34.6363L41.6198 33.9291ZM58.1652 61.7606L57.166 61.7206L58.1652 61.7606ZM41.1328 44.7285L41.0928 43.7293L41.1328 44.7285ZM33.5825 40.7943C32.265 39.4768 31.3912 37.8871 30.9582 36.2071L29.0215 36.7063C29.5412 38.7229 30.5911 40.6313 32.1683 42.2085L33.5825 40.7943ZM41.0928 43.7293C38.386 43.8377 35.6475 42.8593 33.5825 40.7943L32.1683 42.2085C34.6443 44.6845 37.9316 45.8575 41.1728 45.7277L41.0928 43.7293ZM57.2418 55.8594L47.0343 45.6519L45.62 47.0661L55.8276 57.2736L57.2418 55.8594ZM57.166 61.7206C57.0363 64.9616 58.2094 68.2487 60.6853 70.7246L62.0995 69.3103C60.0346 67.2454 59.0561 64.5072 59.1644 61.8005L57.166 61.7206ZM60.6853 70.7246C62.2626 72.3019 64.1712 73.3519 66.1881 73.8715L66.6872 71.9348C65.007 71.5019 63.4171 70.628 62.0995 69.3103L60.6853 70.7246ZM68.9806 62.6717L69.6724 61.9799L68.2582 60.5656L67.5664 61.2575L68.9806 62.6717ZM80.8713 59.1873C80.3516 57.1707 79.3017 55.2624 77.7246 53.6852L76.3104 55.0995C77.6278 56.4169 78.5017 58.0066 78.9346 59.6865L80.8713 59.1873ZM77.7246 53.6852C75.1902 51.1508 71.806 49.9817 68.4912 50.1773L68.609 52.1739C71.3775 52.0105 74.1968 52.9859 76.3104 55.0995L77.7246 53.6852ZM52.6196 40.3937L62.4993 50.2733L63.9135 48.8591L54.0338 38.9795L52.6196 40.3937ZM47.7934 26.5834C49.9069 28.6968 50.8823 31.5159 50.719 34.2843L52.7156 34.402C52.911 31.0874 51.7419 27.7035 49.2076 25.1692L47.7934 26.5834ZM43.2062 23.9591C44.8861 24.392 46.4759 25.2659 47.7934 26.5834L49.2076 25.1692C47.6304 23.592 45.722 22.5421 43.7053 22.0224L43.2062 23.9591ZM41.6353 35.3279L42.3269 34.6363L40.9127 33.222L40.2211 33.9137L41.6353 35.3279ZM40.2211 33.9137C38.9688 35.1659 36.9385 35.1659 35.6863 33.9137L34.2721 35.3279C36.3054 37.3612 39.602 37.3612 41.6353 35.3279L40.2211 33.9137ZM54.0338 38.9795C52.9603 37.9059 52.6084 36.2188 52.7156 34.402L50.719 34.2843C50.5981 36.3356 50.9533 38.7274 52.6196 40.3937L54.0338 38.9795ZM68.4912 50.1773C66.6744 50.2845 64.9871 49.9327 63.9135 48.8591L62.4993 50.2733C64.1657 51.9397 66.5576 52.2949 68.609 52.1739L68.4912 50.1773ZM74.2068 61.9799C75.5397 63.3127 77.3686 63.7295 78.8317 63.24C79.572 62.9924 80.235 62.5021 80.6338 61.7661C81.0354 61.0248 81.1154 60.1343 80.8713 59.1873L78.9346 59.6865C79.0752 60.2321 78.9964 60.5898 78.8753 60.8132C78.7515 61.0419 78.5278 61.2328 78.1971 61.3434C77.5184 61.5705 76.468 61.4126 75.621 60.5656L74.2068 61.9799ZM69.6724 61.9799C70.9246 60.7277 72.9547 60.7277 74.2068 61.9799L75.621 60.5656C73.5879 58.5325 70.2914 58.5325 68.2582 60.5656L69.6724 61.9799ZM66.1881 73.8715C67.1352 74.1156 68.0257 74.0355 68.767 73.6338C69.503 73.2349 69.9932 72.5719 70.2409 71.8316C70.7304 70.3684 70.3135 68.5394 68.9806 67.2065L67.5664 68.6208C68.4134 69.4678 68.5713 70.5182 68.3442 71.1971C68.2336 71.5278 68.0427 71.7515 67.814 71.8754C67.5906 71.9965 67.2328 72.0754 66.6872 71.9348L66.1881 73.8715ZM40.9127 28.6872C42.165 29.9395 42.165 31.9698 40.9127 33.222L42.3269 34.6363C44.3603 32.6029 44.3603 29.3063 42.3269 27.273L40.9127 28.6872ZM55.8276 57.2736C56.8732 58.3193 57.2367 59.9516 57.166 61.7206L59.1644 61.8005C59.2445 59.7986 58.8647 57.4823 57.2418 55.8594L55.8276 57.2736ZM43.7053 22.0224C42.7583 21.7783 41.8677 21.8583 41.1264 22.26C40.3904 22.6588 39.9001 23.3218 39.6525 24.0622C39.163 25.5254 39.5798 27.3543 40.9127 28.6872L42.3269 27.273C41.4799 26.4259 41.322 25.3755 41.5491 24.6967C41.6598 24.366 41.8506 24.1423 42.0793 24.0184C42.3028 23.8973 42.6606 23.8185 43.2062 23.9591L43.7053 22.0224ZM41.1728 45.7277C42.9419 45.6569 44.5743 46.0204 45.62 47.0661L47.0343 45.6519C45.4113 44.0289 43.0948 43.6492 41.0928 43.7293L41.1728 45.7277ZM68.9806 67.2065C67.7283 65.9543 67.7283 63.9239 68.9806 62.6717L67.5664 61.2575C65.5331 63.2908 65.5331 66.5874 67.5664 68.6208L68.9806 67.2065ZM30.9582 36.2071C30.8176 35.6615 30.8964 35.3037 31.0175 35.0803C31.1414 34.8516 31.3651 34.6607 31.6958 34.5501C32.3746 34.323 33.425 34.4808 34.2721 35.3279L35.6863 33.9137C34.3534 32.5808 32.5245 32.1639 31.0613 32.6534C30.3209 32.9011 29.6579 33.3914 29.2591 34.1274C28.8574 34.8687 28.7774 35.7592 29.0215 36.7063L30.9582 36.2071Z" fill="#00BBFF"/>
    <defs>
        <filter id="filter0_d_0_1" x="0" y="0" width="110" height="110" filterUnits="userSpaceOnUse" color-interpolation-filters="sRGB">
            <feFlood flood-opacity="0" result="BackgroundImageFix"/>
            <feColorMatrix in="SourceAlpha" type="matrix" values="0 0 0 0 0 0 0 0 0 0 0 0 0 0 0 0 0 0 127 0" result="hardAlpha"/>
            <feOffset dy="7"/>
            <feGaussianBlur stdDeviation="10"/>
            <feColorMatrix type="matrix" values="0 0 0 0 0 0 0 0 0 0 0 0 0 0 0 0 0 0 0.15 0"/>
            <feBlend mode="normal" in2="BackgroundImageFix" result="effect1_dropShadow_0_1"/>
            <feBlend mode="normal" in="SourceGraphic" in2="effect1_dropShadow_0_1" result="shape"/>
        </filter>
    </defs>
</svg>
