<svg width="58" height="53" viewBox="0 0 58 53" fill="none" xmlns="http://www.w3.org/2000/svg">
    <path d="M13.7136 48.4765C13.7136 48.4765 15.0751 47.6461 18.0705 47.6461C24.3335 47.6461 28.1457 51.5213 33.3195 50.9677C38.4933 50.4141 55.6484 37.958 55.6484 37.958C58.3715 36.0204 55.6484 31.3148 51.5639 33.806L37.9487 41.0029M37.9487 41.0029C42.0332 39.6188 41.4886 33.2524 37.1318 33.2524C37.1318 33.2524 30.8688 33.2524 28.418 33.2524C25.9673 33.2524 22.155 30.4844 19.1597 30.4844C16.1644 30.4844 13.7136 32.1452 13.7136 32.1452M37.9487 41.0029H26.5119" stroke="black" stroke-width="1.66402" stroke-linecap="round"/>
    <path d="M1 28.5293H9.55364C11.8512 28.5293 13.7137 30.3918 13.7137 32.6893V47.8407C13.7137 50.1382 11.8512 52.0007 9.55364 52.0007H1" stroke="#00BBFF" stroke-width="1.66402" stroke-linecap="round"/>
    <circle cx="9.31267" cy="32.9299" r="1.46696" stroke="#00BBFF" stroke-width="1.66402" stroke-linecap="round"/>
    <path d="M33 1L35.0648 4.62271L38.5767 2.37453L38.7214 6.54185L42.8758 6.18322L41.0673 9.94047L44.9125 11.5536L41.5651 14.04L44.2202 17.2553L40.1007 17.9013L40.9575 21.9821L37.0096 20.6397L35.8718 24.6513L33 21.628L30.1282 24.6513L28.9904 20.6397L25.0425 21.9821L25.8993 17.9013L21.7798 17.2553L24.4349 14.04L21.0875 11.5536L24.9327 9.94047L23.1242 6.18322L27.2786 6.54185L27.4233 2.37453L30.9352 4.62271L33 1Z" stroke="#00BBFF" stroke-width="1.66402" stroke-linecap="round" stroke-linejoin="round"/>
</svg>