<svg width="88" height="88" viewBox="0 0 88 88" fill="none" xmlns="http://www.w3.org/2000/svg">
    <path d="M79.8846 46.3479H72.3499C72.1747 42.8433 69.2834 40.0397 65.6913 40.0397H61.4858C57.9812 40.0397 55.09 42.8433 54.8272 46.3479H41.6851V39.7768C41.6851 38.7255 41.5975 37.7617 41.4223 36.798C40.809 33.381 39.0567 30.2269 36.4283 27.8614C33.4494 25.1454 29.5944 23.5683 25.4766 23.5683H23.3738C19.3436 23.5683 15.4886 25.0577 12.5098 27.7738C9.96898 30.1393 8.12909 33.2934 7.51579 36.7104C7.34057 37.6741 7.25296 38.6379 7.25296 39.6892V46.3479C3.57319 46.8735 0.769531 50.0276 0.769531 53.8826V73.3328C0.769531 77.5383 4.18647 80.9552 8.39193 80.9552H46.4163V86.4749C46.4163 87.0006 46.8543 87.4386 47.38 87.4386H79.8846C80.4103 87.4386 80.8484 87.0006 80.8484 86.4749V80.9552C84.6158 80.5172 87.507 77.2755 87.507 73.4205V53.9703C87.507 49.7648 84.0901 46.3479 79.8846 46.3479ZM56.7547 47.3116V46.6983C56.7547 44.0699 58.8574 41.9672 61.4858 41.9672H65.6913C68.3197 41.9672 70.4224 44.0699 70.4224 46.6983V52.7436C70.4224 53.0065 70.4224 53.1817 70.4224 53.4446C70.4224 53.5322 70.4224 53.6198 70.4224 53.7074C70.4224 53.8826 70.3348 54.0579 70.3348 54.2331C70.3348 54.3207 70.2471 54.4083 70.2471 54.4959C69.8967 54.934 67.7063 55.7225 63.6761 55.8101C59.6459 55.8977 57.4555 55.1092 57.1051 54.6712C57.1051 54.5835 57.0175 54.4959 57.0175 54.4083C56.8423 53.8826 56.8423 53.3569 56.8423 52.8313V47.3116H56.7547ZM68.8453 57.1243C67.5311 58.6138 65.6913 59.5775 63.5885 59.5775C61.5734 59.5775 59.7335 58.7014 58.4193 57.2119C60.3468 57.65 62.6248 57.65 63.6761 57.65C64.7275 57.65 66.9178 57.5624 68.8453 57.1243ZM35.1141 29.2632C37.392 31.3659 38.9691 34.1696 39.4948 37.1484C39.67 38.0246 39.7576 38.9007 39.7576 39.7768V46.3479H36.8664V40.8282H34.9389V46.3479H25.2138C25.2138 46.3479 25.3014 46.3479 25.3014 46.2602L28.0174 42.7557C28.1926 42.5805 28.2802 42.3176 28.1926 42.0548L27.1413 29.7889L27.4041 29.526L28.5431 32.0668C28.7183 32.4173 28.9812 32.5925 29.3316 32.6801C29.3316 32.6801 29.3316 32.6801 29.4192 32.6801C29.7697 32.6801 30.0325 32.5049 30.2077 32.2421L32.9237 27.6862C33.7123 28.1242 34.5008 28.6499 35.1141 29.2632ZM23.7243 30.4022H25.2138L26.1775 41.8796L24.4252 44.0699L22.6729 41.8796L23.7243 30.4022ZM31.2591 26.7224L29.5068 29.6136L27.7545 25.671C28.9811 25.9339 30.1201 26.2843 31.2591 26.7224ZM23.4615 25.4958H25.5642L26.528 27.5985L25.7394 28.3871H23.2862L22.4977 27.5985L23.4615 25.4958ZM21.2711 25.7587L19.5189 29.7013L17.7666 26.81C18.9056 26.2843 20.0446 25.9339 21.2711 25.7587ZM9.18047 39.7768C9.18047 38.9007 9.26808 38.0246 9.4433 37.1484C9.96899 34.1696 11.546 31.3659 13.824 29.2632C14.5249 28.6499 15.2258 28.1242 16.0143 27.5985L18.818 32.1544C18.9932 32.4173 19.3436 32.5925 19.6065 32.5925C19.6065 32.5925 19.6065 32.5925 19.6941 32.5925C20.0446 32.5925 20.395 32.3297 20.4826 31.9792L21.6216 29.4384L21.8845 29.7013L20.8331 41.9672C20.8331 42.23 20.9207 42.4928 21.0083 42.6681L23.7243 46.1726C23.7243 46.1726 23.8119 46.1726 23.8119 46.2602H14.0868V40.7406H12.1593V46.2602H9.26807V39.7768H9.18047ZM78.9209 79.9915V85.5112H75.942V79.9915H74.0146V85.5112H53.1625V79.9915H51.235V85.5112H48.2561V78.9401C48.2561 78.064 48.3437 77.1879 48.519 76.3117C49.0446 73.2453 50.6217 70.5292 52.8996 68.4265C55.5281 66.0609 58.945 64.7467 62.4496 64.7467H64.5523C68.1444 64.7467 71.5613 66.0609 74.1898 68.5141C76.4677 70.6168 78.0448 73.3328 78.5704 76.3993C78.7457 77.2755 78.8333 78.1516 78.8333 79.0277V79.9915H78.9209ZM85.5795 73.4205C85.5795 76.2241 83.5644 78.5897 80.8484 79.0277C80.8484 78.064 80.7608 77.1002 80.5856 76.0489C79.9723 72.6319 78.22 69.4779 75.5916 67.1123C72.6127 64.3963 68.7577 62.8192 64.6399 62.8192H62.5371C58.5069 62.8192 54.652 64.3087 51.6731 67.0247C49.0447 69.3903 47.2924 72.5443 46.6791 75.9613C46.5039 77.0126 46.4163 77.9764 46.4163 78.9401V79.0277H8.39193C5.23784 79.0277 2.69704 76.4869 2.69704 73.3328V53.8826C2.69704 50.8162 5.15025 48.2754 8.30434 48.1877H40.809H54.9148V52.6561C54.9148 53.0065 54.9148 53.3569 55.0024 53.7074C55.0024 53.795 55.0024 53.9702 55.09 54.0578C55.09 54.2331 55.1776 54.4959 55.1776 54.6712C55.1776 54.8464 55.2652 55.1092 55.3528 55.2845C56.4918 58.9642 59.8211 61.4174 63.6761 61.4174C67.6187 61.4174 71.0357 58.789 72.0871 55.0216C72.1747 54.8464 72.1747 54.6711 72.2623 54.4959C72.3499 54.3207 72.3499 54.0579 72.3499 53.8826C72.3499 53.8826 72.3499 53.8826 72.3499 53.795C72.3499 53.7074 72.3499 53.6198 72.4375 53.5322C72.4375 53.2693 72.5251 52.9189 72.5251 52.6561V48.1877H79.9723C83.1264 48.1877 85.6672 50.7285 85.6672 53.8826V73.4205H85.5795Z" fill="#00BBFF"/>
    <path d="M21.9705 0.876465C18.5536 0.876465 15.75 3.68011 15.75 7.09704V14.1061C15.75 18.662 19.4297 22.3418 23.9857 22.3418H25.1246C29.6805 22.3418 33.3603 18.662 33.3603 14.1061V7.09704C33.3603 3.68011 30.5567 0.876465 27.1398 0.876465H21.9705ZM31.3452 14.1061C31.3452 17.5231 28.5416 20.4143 25.037 20.4143H23.8981C20.4811 20.4143 17.5899 17.6107 17.5899 14.1061V10.952C20.8316 11.2149 26.4388 9.5502 28.3663 8.9369C29.0672 9.72543 30.2062 10.6892 31.17 10.952V14.1061H31.3452ZM31.3452 7.09704V8.84931C30.8195 8.49886 30.1186 7.88554 29.5053 7.18463C29.2425 6.92179 28.8044 6.74657 28.454 6.9218C25.2999 7.97316 19.9554 9.37498 17.6775 9.02452V7.18463C17.6775 4.81906 19.605 2.89157 21.9705 2.89157H26.9645C29.4177 2.80395 31.3452 4.73147 31.3452 7.09704Z" fill="#00BBFF"/>
    <path d="M74.4542 6.83401H50.2728C46.4178 6.83401 43.2637 9.98811 43.2637 13.8431V19.0123H38.1821C37.8317 19.0123 37.3936 19.2752 37.306 19.6256C37.1308 19.9761 37.2184 20.4141 37.4812 20.677L43.2637 26.4595C43.4389 30.1392 46.5054 33.0305 50.2728 33.0305H74.4542C78.3092 33.0305 81.4633 29.8764 81.4633 26.0214V13.8431C81.4633 9.98811 78.3092 6.83401 74.4542 6.83401ZM79.5358 26.0214C79.5358 28.825 77.2578 31.103 74.4542 31.103H50.2728C47.4692 31.103 45.1912 28.825 45.1912 26.0214C45.1912 25.7586 45.1036 25.4957 44.9284 25.3205L40.5477 20.9398H44.2275C44.7532 20.9398 45.1912 20.5017 45.1912 19.9761V13.8431C45.1912 11.0395 47.4692 8.76153 50.2728 8.76153H74.4542C77.2578 8.76153 79.5358 11.0395 79.5358 13.8431V26.0214Z" fill="#00BBFF"/>
</svg>